<?xml version="1.0" encoding="UTF-8" standalone="no"?>
<!DOCTYPE svg PUBLIC "-//W3C//DTD SVG 1.1//EN" "http://www.w3.org/Graphics/SVG/1.1/DTD/svg11.dtd">
<svg xmlns="http://www.w3.org/2000/svg" version="1.1" viewBox="0 0 400 400">
<g stroke-width="2.00" fill="none" stroke-linecap="butt">
<path stroke="#818181" vector-effect="non-scaling-stroke" d="
  M 348.30 88.94
  Q 348.76 89.01 349.14 88.84
  A 1.19 0.82 -89.0 0 0 349.68 88.09
  Q 352.59 75.52 341.19 70.81
  Q 322.62 63.14 304.37 72.42
  Q 297.66 75.83 296.00 82.25
  Q 295.22 85.27 296.76 88.61
  Q 297.31 89.81 298.25 90.47
  Q 300.65 92.16 300.75 88.50
  Q 300.89 83.44 303.26 80.02
  Q 305.08 77.41 309.30 75.97
  Q 319.93 72.35 331.25 74.24
  Q 336.66 75.14 339.81 77.44
  Q 348.48 83.76 340.69 90.94
  Q 335.77 95.46 328.81 98.47
  Q 324.15 100.48 323.40 100.85
  Q 320.74 102.16 318.12 103.56
  Q 314.55 105.48 313.81 109.31
  Q 312.66 115.26 317.31 119.19
  Q 319.17 120.75 321.53 119.22
  A 1.16 1.11 78.9 0 0 322.03 118.44
  Q 322.47 115.41 320.64 111.72
  A 1.14 1.13 58.5 0 1 320.97 110.32
  Q 323.50 108.41 326.00 107.25
  Q 334.19 103.46 341.61 98.32
  Q 344.83 96.09 347.25 92.25
  Q 348.18 90.78 347.93 89.30
  A 0.33 0.31 -1.0 0 1 348.30 88.94"
/>
<path stroke="#848484" vector-effect="non-scaling-stroke" d="
  M 102.71 111.88
  Q 101.01 111.23 102.49 110.17
  Q 106.33 107.39 109.17 104.75
  Q 113.01 101.20 114.12 97.86
  Q 115.90 92.48 112.61 86.91
  Q 109.68 81.95 103.94 80.31
  Q 100.81 79.42 97.78 79.38
  Q 94.93 79.34 91.62 79.22
  Q 88.05 79.09 84.69 80.25
  Q 79.22 82.14 79.04 82.20
  Q 69.35 85.18 63.21 93.21
  Q 61.08 96.00 61.05 98.38
  Q 60.99 101.84 64.29 103.76
  Q 65.39 104.40 66.33 104.29
  Q 67.92 104.12 67.81 102.25
  A 1.52 1.10 27.9 0 0 67.39 101.40
  Q 64.20 98.12 68.06 95.06
  Q 77.30 87.76 89.11 85.60
  Q 90.85 85.28 93.40 85.47
  Q 95.57 85.63 97.75 85.57
  Q 101.26 85.46 104.21 87.28
  Q 107.68 89.43 107.88 93.16
  Q 107.98 95.17 106.94 97.17
  Q 105.86 99.26 104.19 100.44
  Q 98.54 104.40 96.84 106.09
  Q 93.68 109.22 94.30 112.93
  Q 94.79 115.88 97.92 118.30
  Q 100.68 120.43 104.03 121.59
  A 1.47 1.34 42.5 0 0 104.98 121.59
  Q 106.70 120.95 107.36 119.42
  Q 107.98 117.98 107.08 116.16
  Q 105.47 112.93 102.71 111.88"
/>
<path stroke="#e0d1c9" vector-effect="non-scaling-stroke" d="
  M 149.75 136.04
  Q 150.48 136.73 149.97 137.26
  Q 149.33 137.93 149.29 138.00
  Q 145.45 144.11 142.50 150.71"
/>
<path stroke="#808080" vector-effect="non-scaling-stroke" d="
  M 142.50 150.71
  L 141.05 151.33
  A 0.49 0.40 72.8 0 1 140.47 150.95
  Q 139.74 147.79 136.94 146.81
  Q 129.07 144.07 122.11 147.01
  Q 115.51 149.81 112.15 156.37
  Q 108.85 162.80 109.95 170.72
  Q 110.72 176.22 115.69 177.06
  Q 120.87 177.94 122.24 174.52
  Q 123.02 172.58 120.94 172.38
  Q 116.47 171.97 115.60 169.32
  Q 115.21 168.13 115.51 164.14
  Q 115.97 158.11 120.46 154.44
  Q 123.06 152.32 126.61 151.66
  Q 130.26 150.97 133.55 151.83
  Q 136.15 152.51 135.58 155.13
  Q 134.91 158.23 136.60 159.13
  Q 137.72 159.72 139.80 158.81
  Q 143.66 157.11 147.59 155.60
  Q 151.05 154.28 155.14 153.92
  Q 165.33 153.02 175.49 151.84
  Q 176.45 151.73 176.99 151.54
  Q 179.16 150.77 176.72 149.48
  Q 175.54 148.86 176.82 148.49
  Q 177.33 148.34 177.55 147.80
  A 1.54 0.58 68.3 0 0 177.53 146.83
  Q 177.26 145.70 177.96 144.70
  Q 181.71 139.42 188.18 139.78
  A 1.41 1.38 67.0 0 1 189.07 140.15
  Q 193.97 144.55 194.75 151.25
  Q 194.84 152.05 193.86 153.41
  A 1.65 1.01 -39.3 0 0 193.54 154.32
  Q 193.59 155.37 194.49 155.78
  Q 194.99 156.02 196.04 155.87
  Q 197.38 155.68 198.75 155.71"
/>
<path stroke="#e0d1c9" vector-effect="non-scaling-stroke" d="
  M 198.75 155.71
  Q 199.64 155.50 199.79 156.25"
/>
<path stroke="#808080" vector-effect="non-scaling-stroke" d="
  M 199.79 156.25
  Q 199.17 158.13 200.25 159.44
  Q 200.98 160.33 201.75 161.06
  Q 202.65 161.90 203.94 161.86
  A 1.10 0.92 -18.6 0 1 204.76 162.18
  Q 209.12 167.13 212.50 170.25
  Q 221.35 178.41 226.19 188.81
  Q 229.65 196.26 233.06 209.57
  Q 233.73 212.17 233.19 214.57
  Q 232.02 219.83 229.77 224.73
  A 0.73 0.66 34.7 0 0 229.95 225.50
  Q 230.72 226.25 230.06 227.06
  Q 227.90 229.67 227.21 233.00"
/>
<path stroke="#e0d1c9" vector-effect="non-scaling-stroke" d="
  M 227.21 233.00
  Q 225.37 234.70 225.29 236.91
  Q 225.23 238.71 227.06 240.33
  Q 229.51 242.49 232.29 244.25"
/>
<path stroke="#808080" vector-effect="non-scaling-stroke" d="
  M 232.29 244.25
  Q 233.06 247.46 236.25 248.29"
/>
<path stroke="#e0d1c9" vector-effect="non-scaling-stroke" d="
  M 236.25 248.29
  Q 237.71 249.35 238.06 250.19
  Q 240.39 255.62 240.25 261.54"
/>
<path stroke="#808080" vector-effect="non-scaling-stroke" d="
  M 240.25 261.54
  Q 237.18 261.16 235.36 263.41
  A 1.26 1.23 -29.1 0 0 235.09 264.31
  Q 235.32 266.35 237.04 267.28
  A 1.63 1.01 -25.3 0 0 238.00 267.39
  Q 240.31 266.99 240.79 269.25"
/>
<path stroke="#e0d1c9" vector-effect="non-scaling-stroke" d="
  M 240.79 269.25
  Q 239.82 273.21 240.52 277.25
  Q 240.71 278.33 239.75 278.54"
/>
<path stroke="#808080" vector-effect="non-scaling-stroke" d="
  M 239.75 278.54
  Q 236.80 277.15 235.50 279.98
  A 0.93 0.67 42.9 0 0 235.66 280.80
  Q 235.99 281.26 235.88 281.73
  A 0.82 0.53 -0.6 0 1 235.18 282.19
  Q 234.71 282.24 234.66 282.47
  A 0.80 0.38 16.2 0 0 235.30 283.04
  Q 236.44 283.37 237.31 284.69
  Q 238.05 285.79 240.04 286.50"
/>
<path stroke="#e0d1c9" vector-effect="non-scaling-stroke" d="
  M 240.04 286.50
  Q 238.04 290.76 237.36 295.38
  Q 237.35 295.47 237.40 297.11
  Q 237.43 298.21 236.50 298.79"
/>
<path stroke="#808080" vector-effect="non-scaling-stroke" d="
  M 236.50 298.79
  Q 230.77 295.09 229.59 301.00
  A 0.92 0.78 -67.3 0 0 229.86 301.85
  L 233.54 304.75"
/>
<path stroke="#e0d1c9" vector-effect="non-scaling-stroke" d="
  M 233.54 304.75
  Q 231.36 309.04 227.50 311.96"
/>
<path stroke="#808080" vector-effect="non-scaling-stroke" d="
  M 227.50 311.96
  Q 221.57 312.32 224.42 317.32
  Q 225.62 319.41 227.94 319.55
  Q 228.44 319.58 228.87 319.81
  Q 230.32 320.54 231.96 320.50"
/>
<path stroke="#e0d1c9" vector-effect="non-scaling-stroke" d="
  M 231.96 320.50
  Q 233.77 321.56 234.56 321.69
  Q 242.80 323.00 250.96 321.25"
/>
<path stroke="#818181" vector-effect="non-scaling-stroke" d="
  M 250.96 321.25
  L 251.29 325.25
  A 0.98 0.69 -83.4 0 0 251.69 325.99
  Q 252.76 326.56 253.89 327.00
  Q 255.16 327.52 256.71 327.40
  Q 261.33 327.05 265.91 326.34
  Q 266.04 326.32 267.10 326.28
  Q 268.62 326.23 268.54 324.50"
/>
<path stroke="#e0d1c9" vector-effect="non-scaling-stroke" d="
  M 268.54 324.50
  L 269.25 324.46"
/>
<path stroke="#818181" vector-effect="non-scaling-stroke" d="
  M 269.25 324.46
  Q 270.48 325.53 271.50 325.50
  Q 276.38 325.36 279.26 321.71
  A 1.22 0.93 11.8 0 1 280.06 321.33
  L 281.75 321.21"
/>
<path stroke="#a09f9d" vector-effect="non-scaling-stroke" d="
  M 281.75 321.21
  Q 283.43 320.01 284.44 317.19
  Q 285.15 315.20 283.50 315.54"
/>
<path stroke="#818181" vector-effect="non-scaling-stroke" d="
  M 283.50 315.54
  Q 282.97 314.65 283.54 313.75"
/>
<path stroke="#a09f9d" vector-effect="non-scaling-stroke" d="
  M 283.54 313.75
  L 284.29 311.50"
/>
<path stroke="#818181" vector-effect="non-scaling-stroke" d="
  M 284.29 311.50
  L 292.00 311.46"
/>
<path stroke="#e0d1c9" vector-effect="non-scaling-stroke" d="
  M 292.00 311.46
  Q 292.38 311.55 292.75 311.46"
/>
<path stroke="#818181" vector-effect="non-scaling-stroke" d="
  M 292.75 311.46
  L 297.05 311.34
  A 0.80 0.60 -77.5 0 0 297.64 310.83
  Q 297.92 310.06 299.22 310.82
  A 1.57 1.54 56.2 0 0 300.18 311.02
  Q 308.15 310.11 315.05 307.90
  Q 323.98 305.03 328.75 297.04"
/>
<path stroke="#e0d1c9" vector-effect="non-scaling-stroke" d="
  M 328.75 297.04
  Q 329.58 296.26 329.25 295.04"
/>
<path stroke="#818181" vector-effect="non-scaling-stroke" d="
  M 329.25 295.04
  Q 331.43 290.73 330.22 285.96
  Q 329.23 282.08 328.31 278.19
  Q 328.21 277.74 327.25 275.75
  L 324.81 270.67
  A 1.24 1.07 -23.3 0 1 325.55 269.14
  Q 329.67 267.55 333.69 265.44
  Q 334.99 264.75 335.55 263.99
  Q 335.90 263.53 336.26 263.36
  Q 341.76 260.81 345.35 255.87
  Q 347.65 252.72 347.44 247.69
  Q 347.17 241.12 344.96 236.75"
/>
<path stroke="#a09f9d" vector-effect="non-scaling-stroke" d="
  M 344.96 236.75
  Q 344.17 232.25 341.25 228.71"
/>
<path stroke="#818181" vector-effect="non-scaling-stroke" d="
  M 341.25 228.71
  Q 334.30 218.24 324.17 210.80
  Q 317.61 205.99 312.62 198.86
  A 0.93 0.93 -44.7 0 1 312.63 197.78
  Q 314.24 195.51 315.99 193.48
  Q 323.81 184.42 327.23 172.95
  Q 327.68 171.45 327.21 170.00"
/>
<path stroke="#e0d1c9" vector-effect="non-scaling-stroke" d="
  M 327.21 170.00
  Q 327.60 168.85 327.04 167.75"
/>
<path stroke="#818181" vector-effect="non-scaling-stroke" d="
  M 327.04 167.75
  Q 327.21 165.65 326.44 164.31
  Q 317.54 148.81 299.00 144.25
  Q 282.98 140.31 274.43 139.13
  Q 274.00 139.07 273.53 138.77
  Q 272.36 138.03 270.96 138.24
  Q 269.55 138.47 269.03 138.26
  Q 267.89 137.83 267.59 136.74
  A 1.46 0.89 -49.4 0 1 267.74 135.82
  L 274.04 123.46
  A 1.37 1.22 -41.7 0 0 274.15 122.52
  Q 273.89 121.50 273.16 120.68
  Q 272.87 120.34 273.31 120.38
  Q 275.41 120.58 274.91 118.72
  A 1.48 1.40 -43.4 0 1 274.96 117.80
  Q 275.51 116.37 274.71 115.05
  Q 273.32 112.76 274.29 110.45
  A 0.96 0.79 -54.5 0 0 274.23 109.58
  Q 273.49 108.55 272.29 108.09
  A 1.72 1.53 -4.8 0 1 271.53 107.52
  Q 269.15 104.28 264.49 104.25
  A 1.45 1.43 -22.8 0 1 263.54 103.87
  Q 260.75 101.23 258.49 102.76
  A 0.55 0.55 -26.9 0 1 257.66 102.49
  Q 256.96 100.53 255.73 102.03
  A 0.75 0.72 -62.4 0 1 254.96 102.29
  Q 250.11 100.86 245.46 102.80
  A 1.36 1.09 38.7 0 1 244.54 102.80
  Q 242.79 102.16 240.61 103.49
  A 0.97 0.95 -41.0 0 1 239.51 103.42
  Q 238.38 102.50 236.80 103.77
  A 3.71 3.66 27.0 0 1 234.25 104.58
  Q 232.45 104.46 231.63 104.94
  A 1.45 0.87 -44.6 0 1 230.76 105.15
  Q 228.04 104.65 225.59 105.73
  Q 223.83 106.51 223.74 106.54
  Q 220.68 107.65 216.98 108.72
  A 0.57 0.57 76.2 0 1 216.26 108.28
  Q 214.96 101.73 213.51 95.25
  Q 212.70 91.56 209.75 90.50
  Q 207.75 89.78 205.06 89.96
  Q 203.23 90.08 200.50 90.88
  Q 172.53 99.14 156.02 122.95
  Q 153.68 126.32 152.19 128.31
  Q 150.22 130.94 148.35 133.65
  A 1.41 0.98 -39.2 0 0 148.09 134.56
  Q 148.28 135.85 149.75 136.04"
/>
<path stroke="#62534b" vector-effect="non-scaling-stroke" d="
  M 327.04 167.75
  Q 326.62 168.59 325.69 168.69
  A 0.42 0.36 -11.9 0 0 325.31 169.18
  Q 325.71 170.23 327.21 170.00"
/>
<path stroke="#22211f" vector-effect="non-scaling-stroke" d="
  M 341.25 228.71
  Q 340.32 228.63 339.80 229.11
  A 0.65 0.49 50.8 0 0 339.83 229.87
  L 344.96 236.75"
/>
<path stroke="#62534b" vector-effect="non-scaling-stroke" d="
  M 329.25 295.04
  Q 327.93 295.69 328.75 297.04"
/>
<path stroke="#62534b" vector-effect="non-scaling-stroke" d="
  M 292.75 311.46
  Q 292.47 308.53 292.00 311.46"
/>
<path stroke="#22211f" vector-effect="non-scaling-stroke" d="
  M 284.29 311.50
  Q 282.48 311.73 283.54 313.75"
/>
<path stroke="#22211f" vector-effect="non-scaling-stroke" d="
  M 283.50 315.54
  Q 283.37 317.18 281.81 317.50
  A 0.54 0.51 -9.1 0 0 281.38 318.06
  L 281.75 321.21"
/>
<path stroke="#62534b" vector-effect="non-scaling-stroke" d="
  M 269.25 324.46
  Q 268.88 323.66 269.44 322.94
  Q 269.87 322.39 269.69 322.16
  A 0.63 0.41 -44.9 0 0 268.90 322.32
  Q 268.11 323.18 268.54 324.50"
/>
<path stroke="#62534b" vector-effect="non-scaling-stroke" d="
  M 250.96 321.25
  Q 253.05 318.55 256.90 320.19
  A 0.88 0.86 -58.6 0 0 257.92 319.93
  Q 259.30 318.23 261.75 318.75
  Q 264.76 319.39 271.04 317.75"
/>
<path stroke="#818181" vector-effect="non-scaling-stroke" d="
  M 271.04 317.75
  Q 274.09 317.48 276.16 315.37
  A 0.71 0.61 -40.5 0 0 276.29 314.55
  Q 276.01 314.15 275.50 313.96"
/>
<path stroke="#62534b" vector-effect="non-scaling-stroke" d="
  M 275.50 313.96
  Q 273.72 312.67 274.75 310.96"
/>
<path stroke="#22211f" vector-effect="non-scaling-stroke" d="
  M 274.75 310.96
  Q 279.15 310.25 275.46 308.25"
/>
<path stroke="#62534b" vector-effect="non-scaling-stroke" d="
  M 275.46 308.25
  Q 280.66 301.50 289.25 303.04"
/>
<path stroke="#22211f" vector-effect="non-scaling-stroke" d="
  M 289.25 303.04
  L 290.98 305.58
  A 0.57 0.49 55.5 0 0 291.70 305.77
  L 294.00 304.21"
/>
<path stroke="#62534b" vector-effect="non-scaling-stroke" d="
  M 294.00 304.21
  L 295.58 304.99
  A 0.70 0.66 35.1 0 0 296.35 304.88
  Q 297.94 303.28 300.15 303.04
  Q 302.25 302.81 302.34 302.79
  Q 303.99 302.46 305.62 302.11
  Q 306.33 301.96 308.91 301.56
  Q 314.07 300.76 318.25 297.54"
/>
<path stroke="#818181" vector-effect="non-scaling-stroke" d="
  M 318.25 297.54
  Q 323.13 294.24 322.47 288.25
  Q 321.92 283.31 319.75 278.93
  Q 318.50 276.40 318.07 275.35
  Q 317.30 273.51 316.50 271.71"
/>
<path stroke="#62534b" vector-effect="non-scaling-stroke" d="
  M 316.50 271.71
  Q 316.11 268.78 318.25 264.89
  A 3.86 3.86 -89.4 0 1 319.84 263.33
  Q 325.17 260.56 330.37 257.93
  Q 334.63 255.79 337.80 252.33
  Q 339.53 250.44 339.92 248.68
  Q 340.39 246.59 339.75 244.25
  Q 336.86 233.70 329.83 226.09
  Q 328.97 225.16 322.81 219.27
  Q 318.01 214.69 315.44 212.81
  Q 308.68 207.87 304.75 200.50
  Q 303.75 198.63 305.06 196.31
  Q 308.42 190.35 312.71 185.00"
/>
<path stroke="#818181" vector-effect="non-scaling-stroke" d="
  M 312.71 185.00
  Q 318.12 178.37 320.71 170.25"
/>
<path stroke="#62534b" vector-effect="non-scaling-stroke" d="
  M 320.71 170.25
  Q 318.59 164.04 313.06 159.44
  Q 307.58 154.88 302.51 152.17
  Q 302.25 152.04 301.75 151.54
  Q 301.07 150.86 300.32 151.80
  A 0.94 0.93 -60.0 0 1 299.25 152.09
  Q 291.34 149.01 283.02 147.72
  Q 278.29 146.98 276.02 146.48
  Q 272.56 145.71 269.09 144.96
  Q 267.52 144.61 264.90 144.88
  Q 258.54 145.53 260.25 138.00
  Q 261.60 132.08 267.24 122.92
  A 1.84 1.79 62.1 0 0 267.51 122.00
  Q 267.54 119.89 267.84 117.81
  Q 268.33 114.39 267.89 113.19
  Q 266.92 110.53 263.31 110.44
  Q 259.93 110.35 257.99 107.96
  A 0.85 0.76 62.7 0 0 257.20 107.66
  Q 256.62 107.80 256.05 107.97
  Q 255.17 108.25 254.40 108.27
  Q 248.55 108.41 242.73 109.01
  Q 241.17 109.17 237.52 110.18
  Q 235.32 110.79 232.25 111.25
  Q 225.28 112.30 217.20 116.04
  A 1.36 0.98 35.2 0 1 216.30 116.05
  L 215.73 115.86
  A 1.41 0.75 -36.7 0 0 214.81 116.00
  Q 213.73 116.51 212.80 116.01
  Q 212.14 115.66 211.71 114.58
  Q 209.43 108.93 209.06 102.83
  Q 209.05 102.74 209.10 100.19
  Q 209.20 94.62 203.01 95.81
  Q 198.24 96.73 193.96 99.00"
/>
<path stroke="#818181" vector-effect="non-scaling-stroke" d="
  M 193.96 99.00
  Q 181.47 103.76 171.44 113.44
  Q 164.96 119.68 160.46 125.75"
/>
<path stroke="#62534b" vector-effect="non-scaling-stroke" d="
  M 160.46 125.75
  Q 156.97 129.85 153.19 133.69
  Q 151.25 135.66 149.75 136.04"
/>
<path stroke="#e0d1c9" vector-effect="non-scaling-stroke" d="
  M 320.71 170.25
  Q 319.79 170.12 319.53 170.82
  Q 319.30 171.41 319.24 171.51
  Q 315.60 177.50 312.60 183.83
  Q 312.30 184.48 312.71 185.00"
/>
<path stroke="#e0d1c9" vector-effect="non-scaling-stroke" d="
  M 316.50 271.71
  Q 315.12 271.47 315.56 272.44
  Q 317.59 276.81 318.92 280.81
  Q 320.75 286.34 320.83 288.64
  Q 320.99 292.97 317.85 296.60
  Q 317.03 297.55 318.25 297.54"
/>
<path stroke="#817167" vector-effect="non-scaling-stroke" d="
  M 294.00 304.21
  Q 291.91 302.60 289.25 303.04"
/>
<path stroke="#817167" vector-effect="non-scaling-stroke" d="
  M 275.46 308.25
  L 274.75 310.96"
/>
<path stroke="#e0d1c9" vector-effect="non-scaling-stroke" d="
  M 275.50 313.96
  Q 272.67 315.17 271.04 317.75"
/>
<path stroke="#61524a" vector-effect="non-scaling-stroke" d="
  M 231.96 320.50
  Q 232.45 314.85 227.50 311.96"
/>
<path stroke="#61524a" vector-effect="non-scaling-stroke" d="
  M 233.54 304.75
  Q 236.42 306.54 239.75 306.73
  A 1.36 1.18 23.8 0 0 240.65 306.45
  Q 242.57 304.88 241.06 302.69
  Q 240.37 301.68 236.50 298.79"
/>
<path stroke="#61524a" vector-effect="non-scaling-stroke" d="
  M 240.04 286.50
  Q 243.78 288.72 247.37 287.08
  A 1.70 1.69 65.1 0 0 248.19 284.82
  Q 247.32 282.98 245.71 281.92
  Q 243.38 280.37 243.11 280.17
  Q 241.59 279.07 239.75 278.54"
/>
<path stroke="#61524a" vector-effect="non-scaling-stroke" d="
  M 240.79 269.25
  Q 241.92 269.15 247.00 269.25
  Q 249.22 269.30 249.32 267.51
  Q 249.37 266.43 248.39 265.40
  Q 245.15 262.03 240.25 261.54"
/>
<path stroke="#61524a" vector-effect="non-scaling-stroke" d="
  M 236.25 248.29
  Q 239.96 248.05 241.50 248.25
  Q 245.92 248.81 249.32 246.06
  A 1.20 1.20 47.9 0 0 249.41 244.28
  Q 247.87 242.77 245.50 242.47
  Q 240.07 241.77 234.75 243.00
  Q 233.10 243.38 232.29 244.25"
/>
<path stroke="#61524a" vector-effect="non-scaling-stroke" d="
  M 227.21 233.00
  Q 229.66 235.77 230.88 232.79
  Q 231.40 231.53 231.71 232.85
  Q 232.31 235.32 233.49 233.47
  Q 236.71 228.43 238.65 222.76
  Q 240.44 217.53 240.06 212.21
  Q 239.82 208.88 238.00 201.97
  Q 235.64 192.96 231.49 184.66
  Q 228.16 178.01 222.76 171.70
  Q 217.24 165.25 211.69 160.56
  Q 208.31 157.71 202.98 156.60
  Q 202.61 156.52 202.10 156.20
  Q 200.99 155.50 199.79 156.25"
/>
<path stroke="#61524a" vector-effect="non-scaling-stroke" d="
  M 198.75 155.71
  Q 200.36 155.07 201.25 153.69
  A 1.63 1.33 64.1 0 0 201.47 152.75
  Q 201.31 150.52 200.94 148.32
  Q 200.93 148.28 200.69 146.17
  Q 200.44 143.95 199.06 142.44
  Q 196.82 139.97 196.06 137.44
  Q 195.41 135.26 192.72 134.39
  A 1.67 0.66 -24.6 0 0 191.78 134.44
  Q 191.13 134.62 190.78 134.14
  A 1.26 0.69 65.4 0 0 190.07 133.61
  Q 180.99 132.22 175.00 138.41
  Q 173.77 139.68 172.65 142.06
  Q 171.71 144.05 170.67 146.00
  A 0.85 0.59 10.0 0 1 169.96 146.33
  L 165.56 146.22
  A 0.66 0.52 -86.1 0 0 165.02 146.82
  Q 164.70 149.56 163.41 147.02
  A 0.55 0.52 65.0 0 0 162.74 146.76
  Q 160.54 147.68 157.50 147.50
  Q 153.40 147.26 149.06 149.31
  Q 148.05 149.79 147.23 149.65
  A 1.60 1.00 26.3 0 0 146.31 149.74
  Q 144.51 150.65 142.50 150.71"
/>
<path stroke="#e0d1c9" vector-effect="non-scaling-stroke" d="
  M 160.46 125.75
  Q 160.89 126.84 161.69 125.94
  Q 175.67 110.05 193.29 100.12
  Q 193.37 100.07 193.73 99.96
  Q 194.27 99.78 193.96 99.00"
/>
<path stroke="#808080" vector-effect="non-scaling-stroke" d="
  M 124.1774 125.9159
  A 7.90 6.24 -22.9 0 0 114.4719 123.2418
  A 7.90 6.24 -22.9 0 0 109.6226 132.0641
  A 7.90 6.24 -22.9 0 0 119.3281 134.7382
  A 7.90 6.24 -22.9 0 0 124.1774 125.9159"
/>
<path stroke="#808080" vector-effect="non-scaling-stroke" d="
  M 324.8969 132.0471
  A 6.98 5.77 1.7 0 0 318.0912 126.0725
  A 6.98 5.77 1.7 0 0 310.9431 131.6329
  A 6.98 5.77 1.7 0 0 317.7488 137.6075
  A 6.98 5.77 1.7 0 0 324.8969 132.0471"
/>
<path stroke="#808080" vector-effect="non-scaling-stroke" d="
  M 62.31 177.64
  Q 72.81 170.35 71.62 158.11
  Q 71.16 153.35 68.52 150.75
  Q 65.41 147.69 60.50 147.50
  Q 49.92 147.09 39.30 150.88
  Q 24.02 156.32 20.22 172.19
  Q 17.37 184.06 26.23 190.58
  Q 28.79 192.46 30.75 192.25
  Q 33.17 192.00 35.31 189.40
  A 1.16 1.16 -48.7 0 0 35.21 187.82
  Q 33.85 186.54 32.29 186.27
  Q 29.80 185.85 29.36 185.59
  Q 25.69 183.47 25.67 178.75
  Q 25.62 167.03 33.54 160.75
  Q 38.05 157.17 46.12 155.23
  Q 53.01 153.57 60.00 153.75
  Q 63.90 153.85 65.99 157.07
  A 1.50 1.36 -61.1 0 1 66.21 158.00
  Q 65.24 168.72 56.45 174.93
  Q 52.18 177.95 56.56 180.94
  Q 59.79 183.14 65.22 188.83
  A 0.91 0.87 61.7 0 0 66.05 189.10
  Q 68.61 188.59 70.57 186.80
  Q 72.52 185.04 70.18 183.56
  L 62.30 178.57
  A 0.57 0.55 -45.7 0 1 62.31 177.64"
/>
<path stroke="#a09f9d" vector-effect="non-scaling-stroke" d="
  M 369.00 198.96
  L 370.50 198.21"
/>
<path stroke="#818181" vector-effect="non-scaling-stroke" d="
  M 370.50 198.21
  Q 382.73 193.91 388.06 181.81
  Q 390.76 175.68 389.62 169.80
  Q 388.57 164.40 383.84 159.93
  Q 378.57 154.95 371.51 153.17
  Q 364.90 151.50 359.52 153.24
  Q 352.63 155.46 350.47 162.55
  Q 348.75 168.21 351.05 172.67
  Q 354.03 178.45 362.02 177.22
  Q 363.43 177.01 364.32 176.34
  Q 366.60 174.65 363.24 173.24
  Q 362.17 172.80 361.02 172.75
  Q 354.94 172.49 356.26 166.36
  Q 358.06 158.01 366.68 158.86
  Q 373.27 159.51 378.45 163.54
  Q 382.04 166.32 383.08 170.34
  Q 383.96 173.74 382.21 177.98
  Q 376.61 191.55 361.00 193.76
  Q 356.62 194.38 354.94 195.08
  Q 351.77 196.39 351.36 199.79
  Q 350.48 207.23 356.47 205.58
  A 1.19 1.15 5.1 0 0 357.19 205.00
  L 358.60 202.26
  A 1.16 1.10 -83.1 0 1 359.29 201.69
  L 369.00 198.96"
/>
<path stroke="#22211f" vector-effect="non-scaling-stroke" d="
  M 370.50 198.21
  Q 369.60 197.52 368.52 197.20
  Q 367.49 196.89 368.42 197.84
  Q 368.89 198.32 369.00 198.96"
/>
<path stroke="#808080" vector-effect="non-scaling-stroke" d="
  M 119.08 188.82
  Q 117.05 189.45 115.06 191.31
  Q 107.71 198.21 103.00 205.57
  Q 99.91 210.40 96.55 215.05
  Q 95.32 216.75 97.24 218.01
  A 1.67 1.67 -51.0 0 0 99.34 217.79
  Q 103.05 214.01 106.11 209.85
  Q 112.89 200.58 121.14 192.60
  A 1.27 1.07 -25.5 0 0 121.52 191.76
  Q 121.50 189.89 120.01 188.93
  A 1.18 1.12 -36.8 0 0 119.08 188.82"
/>
<path stroke="#808080" vector-effect="non-scaling-stroke" d="
  M 76.8356 201.6789
  A 6.70 5.75 131.1 0 0 85.5730 200.4099
  A 6.70 5.75 131.1 0 0 85.6444 191.5811
  A 6.70 5.75 131.1 0 0 76.9070 192.8501
  A 6.70 5.75 131.1 0 0 76.8356 201.6789"
/>
<path stroke="#818181" vector-effect="non-scaling-stroke" d="
  M 148.10 201.09
  Q 148.73 201.97 148.91 202.98
  Q 149.07 203.93 148.22 205.71
  Q 146.20 209.97 150.73 211.65
  Q 152.64 212.36 153.49 210.51
  Q 156.53 203.97 152.73 197.94
  Q 150.97 195.16 147.50 194.75
  Q 142.46 194.16 138.43 196.75
  Q 130.62 201.76 126.13 209.82
  Q 125.33 211.25 125.49 212.33
  Q 125.76 214.22 127.93 214.21
  A 1.11 1.03 -68.9 0 0 128.75 213.81
  Q 135.22 205.91 140.06 201.56
  Q 142.77 199.13 146.46 200.02
  Q 147.53 200.28 148.10 201.09"
/>
<path stroke="#818181" vector-effect="non-scaling-stroke" d="
  M 187.45 201.79
  Q 185.39 199.97 182.00 200.25
  Q 169.92 201.25 165.20 211.54
  A 1.42 1.27 -43.4 0 0 165.12 212.49
  Q 165.87 214.98 168.57 214.86
  A 1.03 0.91 -73.5 0 0 169.32 214.39
  Q 172.65 208.93 177.75 206.75
  Q 181.88 204.98 184.16 207.66
  Q 185.74 209.52 185.77 212.70
  Q 185.80 215.44 184.79 218.11
  A 1.52 1.51 15.9 0 0 185.92 220.13
  Q 186.82 220.32 187.53 221.62
  Q 188.30 223.04 189.08 221.63
  Q 192.43 215.62 191.05 209.26
  Q 190.47 206.58 189.92 205.24
  Q 189.11 203.27 187.45 201.79"
/>
<path stroke="#808080" vector-effect="non-scaling-stroke" d="
  M 348.75 214.99
  Q 345.96 218.15 348.50 220.75
  Q 353.78 226.16 360.21 221.25
  Q 363.29 218.90 361.07 215.68
  Q 355.40 207.45 348.75 214.99"
/>
<path stroke="#808080" vector-effect="non-scaling-stroke" d="
  M 31.46 256.96
  Q 30.46 252.45 28.47 248.37
  Q 27.48 246.36 25.25 246.47
  Q 22.21 246.63 21.31 248.54
  Q 21.18 248.82 20.58 252.36
  Q 19.30 259.90 19.95 267.51
  Q 20.25 271.02 21.62 272.63
  Q 23.52 274.88 27.00 275.01
  Q 30.50 275.14 31.50 272.00
  Q 32.31 269.44 34.46 269.82
  Q 37.02 270.26 37.12 270.27
  Q 58.03 270.52 78.94 270.93
  A 1.68 1.61 -59.9 0 0 79.87 270.66
  L 80.38 270.34
  A 1.24 1.19 34.1 0 1 81.30 270.18
  Q 83.49 270.67 88.00 270.75
  Q 96.25 270.89 104.50 270.42
  Q 107.34 270.25 109.48 268.83
  A 1.02 1.02 -42.0 0 0 109.57 267.20
  Q 108.38 266.19 106.95 265.65
  Q 105.88 265.25 104.00 265.24
  Q 87.41 265.08 70.82 264.70
  Q 63.32 264.53 54.66 264.69
  Q 41.39 264.93 38.50 264.50
  Q 36.24 264.16 33.98 263.75
  Q 32.55 263.48 33.84 262.80
  Q 49.41 254.50 64.77 245.74
  Q 77.88 238.27 89.79 229.00
  A 1.36 1.07 -20.3 0 0 90.28 228.20
  Q 90.57 226.21 88.73 225.62
  A 1.37 1.08 -44.3 0 0 87.80 225.72
  Q 82.74 228.23 77.92 231.16
  Q 55.34 244.86 32.00 257.21
  A 0.38 0.37 69.6 0 1 31.46 256.96"
/>
<path stroke="#808080" vector-effect="non-scaling-stroke" d="
  M 132.68 265.93
  Q 132.69 268.72 134.64 270.24
  Q 136.16 271.43 138.64 271.22
  Q 141.39 270.99 142.69 269.69
  Q 146.29 266.08 149.23 261.38
  A 0.61 0.61 35.3 0 1 150.12 261.23
  Q 151.57 262.40 153.06 263.55
  Q 154.91 264.97 156.37 265.16
  Q 159.62 265.59 161.50 262.50
  Q 164.93 256.85 163.55 250.73
  Q 162.57 246.45 159.12 244.01
  Q 155.58 241.52 151.00 241.25
  Q 146.29 240.98 141.77 242.33
  Q 137.04 243.75 133.79 246.70
  Q 126.47 253.36 129.91 264.21
  A 0.97 0.78 2.4 0 0 130.55 264.77
  L 132.22 265.25
  A 0.74 0.63 -83.9 0 1 132.68 265.93"
/>
<path stroke="#848484" vector-effect="non-scaling-stroke" d="
  M 187.44 284.06
  Q 191.73 286.30 196.89 286.67
  Q 199.77 286.88 200.59 286.67
  Q 202.67 286.12 203.11 283.27
  A 1.19 1.16 -79.3 0 0 202.22 281.93
  L 192.38 279.73
  Q 190.53 279.31 190.91 277.50
  Q 191.46 274.85 194.18 272.68
  Q 197.36 270.13 200.40 267.23
  Q 202.55 265.18 199.66 264.49
  Q 197.10 263.88 194.07 266.03
  Q 191.09 268.14 188.46 270.66
  Q 186.42 272.61 185.72 274.75
  Q 184.94 277.15 184.96 279.75
  Q 185.00 282.79 187.44 284.06"
/>
<path stroke="#808080" vector-effect="non-scaling-stroke" d="
  M 119.70 313.76
  L 123.58 311.01
  A 0.92 0.74 37.6 0 1 124.44 310.99
  Q 126.69 312.08 127.31 309.56
  Q 128.12 306.29 125.18 303.52
  A 1.30 1.23 21.1 0 1 124.78 302.68
  Q 124.20 293.32 127.50 283.78
  A 1.15 1.14 -68.8 0 0 126.88 282.36
  Q 123.98 281.07 122.52 284.01
  Q 121.81 285.42 121.02 286.88
  A 0.41 0.41 34.2 0 1 120.39 287.00
  Q 117.80 284.83 114.56 284.19
  Q 113.57 283.99 112.92 284.25
  A 0.80 0.76 -36.7 0 1 112.14 284.16
  L 109.99 282.56
  Q 108.03 281.09 109.19 279.34
  Q 111.39 276.02 114.53 273.73
  A 1.31 1.11 -17.5 0 0 115.03 272.94
  Q 115.41 270.54 113.55 269.95
  Q 112.27 269.54 110.58 270.40
  Q 106.31 272.56 104.00 276.57
  Q 101.87 280.29 102.71 283.72
  Q 103.72 287.87 108.50 289.50
  Q 109.55 289.86 114.33 291.07
  A 2.04 1.34 -35.7 0 0 115.29 291.03
  Q 116.80 290.60 117.86 291.45
  Q 118.77 292.17 118.80 293.89
  Q 118.88 297.84 118.00 300.75
  Q 117.31 303.03 119.04 303.83
  A 0.75 0.63 16.4 0 1 119.48 304.50
  Q 119.24 307.17 116.44 308.94
  Q 113.57 310.74 113.72 314.51
  A 1.34 1.17 -29.5 0 1 113.42 315.36
  Q 112.11 316.96 113.69 318.57
  A 2.76 2.76 25.0 0 1 114.48 320.73
  Q 114.31 322.89 116.32 324.19
  Q 119.24 326.08 122.74 325.84
  Q 126.33 325.59 129.84 326.30
  Q 129.90 326.31 131.58 326.93
  Q 132.84 327.39 133.93 326.62
  A 1.70 1.54 -60.4 0 1 134.81 326.33
  Q 137.42 326.30 137.51 323.29
  A 0.71 0.71 10.8 0 1 138.46 322.65
  Q 141.06 323.57 143.29 322.70
  A 1.79 1.28 -41.4 0 1 144.24 322.60
  Q 145.05 322.77 145.82 323.04
  Q 146.91 323.42 147.89 323.37
  Q 151.91 323.16 155.69 323.47
  A 1.36 1.35 -74.3 0 0 157.02 322.72
  Q 157.89 320.96 158.36 320.98
  A 0.63 0.32 -71.1 0 1 158.47 321.77
  Q 157.63 323.69 159.49 323.42
  Q 160.58 323.26 161.03 323.27
  Q 163.72 323.36 166.41 323.45
  Q 166.55 323.46 169.04 323.83
  Q 171.70 324.23 173.08 321.87
  A 2.12 2.11 -54.4 0 0 172.64 319.20
  Q 169.32 316.34 165.50 316.51
  Q 159.25 316.77 153.42 316.52
  A 1.80 1.80 -66.8 0 0 152.09 317.01
  Q 148.99 319.84 150.44 317.08
  Q 150.80 316.37 150.01 316.45
  Q 143.91 317.04 138.32 316.52
  Q 134.31 316.16 134.58 320.25
  A 0.45 0.45 1.1 0 1 134.08 320.73
  Q 133.03 320.61 131.90 320.52
  Q 130.97 320.44 129.86 319.90
  Q 127.59 318.79 125.12 319.18
  Q 123.23 319.47 122.37 319.20
  Q 120.99 318.77 119.87 317.83
  A 0.91 0.78 -66.5 0 1 119.62 317.01
  Q 119.87 315.75 119.49 314.54
  A 0.73 0.61 65.2 0 1 119.70 313.76"
/>
<path stroke="#808080" vector-effect="non-scaling-stroke" d="
  M 201.05 323.59
  Q 208.70 324.01 216.26 322.75
  A 1.47 1.47 83.3 0 0 217.48 321.20
  Q 217.41 320.20 218.28 319.48
  A 0.49 0.44 -40.8 0 0 218.37 318.81
  Q 217.46 317.80 216.28 317.25
  Q 215.30 316.79 213.80 317.04
  Q 211.63 317.41 209.44 317.61
  Q 208.80 317.67 206.13 318.21
  Q 204.46 318.55 202.73 318.32
  A 1.06 0.89 -61.1 0 0 201.93 318.63
  Q 201.16 319.38 200.15 319.20
  Q 198.92 318.98 198.80 318.98
  Q 194.02 318.84 189.24 318.50
  Q 185.59 318.24 187.35 315.03
  Q 189.79 310.61 194.94 308.19
  Q 197.64 306.92 196.48 304.49
  Q 195.98 303.43 194.92 303.19
  Q 193.77 302.93 192.70 303.47
  Q 190.59 304.54 190.50 304.58
  Q 184.85 306.60 181.11 311.35
  Q 180.04 312.70 180.37 314.26
  A 1.35 0.61 70.1 0 1 180.30 315.20
  L 179.84 315.89
  A 1.09 0.73 -44.1 0 0 179.66 316.73
  Q 180.22 318.36 180.82 319.97
  Q 181.52 321.84 182.57 322.85
  Q 185.81 326.00 190.51 324.88
  A 1.67 1.65 -41.5 0 1 191.47 324.93
  Q 194.65 326.06 198.02 325.36
  Q 198.46 325.27 198.98 325.39
  Q 200.73 325.80 200.62 324.06
  A 0.44 0.41 89.3 0 1 201.05 323.59"
/>
<path stroke="#62534b" vector-effect="non-scaling-stroke" d="
  M 270.21 139.64
  Q 270.43 141.96 270.78 139.64
  Q 270.82 139.43 270.77 139.25
  Q 270.50 138.21 270.24 139.23
  Q 270.19 139.43 270.21 139.64"
/>
<path stroke="#62534b" vector-effect="non-scaling-stroke" d="
  M 278.9825 142.7081
  A 0.78 0.42 20.1 0 0 278.3943 142.0456
  A 0.78 0.42 20.1 0 0 277.5175 142.1719
  A 0.78 0.42 20.1 0 0 278.1057 142.8344
  A 0.78 0.42 20.1 0 0 278.9825 142.7081"
/>
<path stroke="#22211f" vector-effect="non-scaling-stroke" d="
  M 334.13 257.40
  Q 332.77 259.68 334.62 257.98
  A 0.99 0.88 -24.7 0 0 334.94 257.25
  Q 334.90 256.10 334.13 257.40"
/>
<path stroke="#62534b" vector-effect="non-scaling-stroke" d="
  M 320.7125 271.6353
  A 0.81 0.43 28.4 0 0 320.2045 270.8718
  A 0.81 0.43 28.4 0 0 319.2875 270.8647
  A 0.81 0.43 28.4 0 0 319.7955 271.6282
  A 0.81 0.43 28.4 0 0 320.7125 271.6353"
/>
<path stroke="#62534b" vector-effect="non-scaling-stroke" d="
  M 320.41 274.81
  Q 320.63 274.56 320.43 274.27
  A 1.04 0.79 -17.3 0 0 319.56 273.95
  Q 318.53 274.06 319.69 274.83
  A 0.60 0.48 37.0 0 0 320.41 274.81"
/>
<path stroke="#62534b" vector-effect="non-scaling-stroke" d="
  M 328.9337 282.8669
  A 0.75 0.57 -40.1 0 0 327.9928 282.9140
  A 0.75 0.57 -40.1 0 0 327.7863 283.8331
  A 0.75 0.57 -40.1 0 0 328.7272 283.7860
  A 0.75 0.57 -40.1 0 0 328.9337 282.8669"
/>
<path stroke="#22211f" vector-effect="non-scaling-stroke" d="
  M 314.49 303.58
  Q 315.67 302.91 315.11 302.74
  Q 314.78 302.64 314.30 302.84
  Q 312.73 303.51 313.57 303.73
  A 1.33 1.07 -48.2 0 0 314.49 303.58"
/>
<path stroke="#22211f" vector-effect="non-scaling-stroke" d="
  M 282.2568 307.4789
  A 1.16 0.86 129.2 0 0 283.6565 307.1235
  A 1.16 0.86 129.2 0 0 283.7232 305.6811
  A 1.16 0.86 129.2 0 0 282.3235 306.0365
  A 1.16 0.86 129.2 0 0 282.2568 307.4789"
/>
<path stroke="#22211f" vector-effect="non-scaling-stroke" d="
  M 277.0641 320.1859
  A 0.97 0.48 135.0 0 0 278.0894 319.8394
  A 0.97 0.48 135.0 0 0 278.4359 318.8141
  A 0.97 0.48 135.0 0 0 277.4106 319.1606
  A 0.97 0.48 135.0 0 0 277.0641 320.1859"
/>
<path stroke="#61524a" vector-effect="non-scaling-stroke" d="
  M 219.68 135.87
  Q 221.62 136.31 223.71 135.81
  A 1.41 1.39 -77.2 0 0 224.51 135.30
  Q 226.53 132.70 226.44 129.40
  A 0.77 0.77 81.0 0 0 225.45 128.68
  Q 220.94 130.00 218.94 134.37
  A 1.08 1.08 -71.3 0 0 219.68 135.87"
/>
<path stroke="#61524a" vector-effect="non-scaling-stroke" d="
  M 240.3700 140.6413
  A 7.52 2.78 -37.7 0 0 232.7200 143.0404
  A 7.52 2.78 -37.7 0 0 228.4700 149.8387
  A 7.52 2.78 -37.7 0 0 236.1200 147.4396
  A 7.52 2.78 -37.7 0 0 240.3700 140.6413"
/>
<path stroke="#61524a" vector-effect="non-scaling-stroke" d="
  M 268.1454 174.9006
  A 2.33 2.33 0.0 0 0 264.9400 174.1370
  L 259.4038 177.5429
  A 2.33 2.33 0.0 0 0 258.6402 180.7483
  L 258.9546 181.2594
  A 2.33 2.33 0.0 0 0 262.1600 182.0230
  L 267.6962 178.6171
  A 2.33 2.33 0.0 0 0 268.4598 175.4117
  L 268.1454 174.9006"
/>
<path stroke="#64564e" vector-effect="non-scaling-stroke" d="
  M 276.70 214.68
  Q 276.91 217.47 280.33 217.03
  Q 282.61 216.73 281.52 214.71
  Q 279.41 210.81 276.99 213.79
  A 1.29 1.19 -29.1 0 0 276.70 214.68"
/>
<path stroke="#61524a" vector-effect="non-scaling-stroke" d="
  M 280.69 238.18
  Q 279.54 243.89 286.13 242.06
  A 1.43 1.43 -23.8 0 0 286.96 239.92
  Q 285.16 237.07 282.16 237.00
  A 1.48 1.47 6.1 0 0 280.69 238.18"
/>
<path stroke="#61524a" vector-effect="non-scaling-stroke" d="
  M 275.64 267.68
  Q 280.13 269.70 284.69 268.96
  Q 287.50 268.50 288.30 266.04
  A 0.88 0.86 33.2 0 0 288.11 265.18
  Q 286.15 263.03 283.20 263.15
  Q 282.84 263.16 282.30 263.49
  Q 281.79 263.79 281.27 263.64
  Q 280.37 263.40 280.33 263.39
  Q 278.12 263.25 276.13 264.21
  A 0.97 0.96 -8.4 0 0 275.59 264.93
  L 275.25 266.98
  A 0.67 0.64 16.9 0 0 275.64 267.68"
/>
<path stroke="#61524a" vector-effect="non-scaling-stroke" d="
  M 133.71 254.50
  Q 132.15 258.18 134.96 261.00"
/>
<path stroke="#7b0909" vector-effect="non-scaling-stroke" d="
  M 134.96 261.00
  L 137.65 264.56
  Q 139.21 266.64 140.78 264.19
  Q 142.57 261.38 144.67 259.03
  Q 146.81 256.63 149.20 256.41
  Q 152.86 256.07 156.16 258.99
  A 1.13 1.12 -56.2 0 0 157.92 258.64
  Q 159.94 254.51 158.10 251.05
  Q 156.60 248.22 152.69 246.99
  Q 145.71 244.80 138.94 248.19
  Q 135.19 250.06 133.71 254.50"
/>
<path stroke="#db5a52" vector-effect="non-scaling-stroke" d="
  M 134.96 261.00
  L 133.71 254.50"
/>
<path stroke="#61524a" vector-effect="non-scaling-stroke" d="
  M 120.11 294.14
  Q 119.77 295.04 120.49 294.57
  Q 120.69 294.45 120.80 294.22
  Q 121.49 292.80 120.35 293.79
  Q 120.18 293.94 120.11 294.14"
/>
</g>
<path fill="#ffffff" d="
  M 0.00 0.00
  L 400.00 0.00
  L 400.00 400.00
  L 0.00 400.00
  L 0.00 0.00
  Z
  M 348.30 88.94
  Q 348.76 89.01 349.14 88.84
  A 1.19 0.82 -89.0 0 0 349.68 88.09
  Q 352.59 75.52 341.19 70.81
  Q 322.62 63.14 304.37 72.42
  Q 297.66 75.83 296.00 82.25
  Q 295.22 85.27 296.76 88.61
  Q 297.31 89.81 298.25 90.47
  Q 300.65 92.16 300.75 88.50
  Q 300.89 83.44 303.26 80.02
  Q 305.08 77.41 309.30 75.97
  Q 319.93 72.35 331.25 74.24
  Q 336.66 75.14 339.81 77.44
  Q 348.48 83.76 340.69 90.94
  Q 335.77 95.46 328.81 98.47
  Q 324.15 100.48 323.40 100.85
  Q 320.74 102.16 318.12 103.56
  Q 314.55 105.48 313.81 109.31
  Q 312.66 115.26 317.31 119.19
  Q 319.17 120.75 321.53 119.22
  A 1.16 1.11 78.9 0 0 322.03 118.44
  Q 322.47 115.41 320.64 111.72
  A 1.14 1.13 58.5 0 1 320.97 110.32
  Q 323.50 108.41 326.00 107.25
  Q 334.19 103.46 341.61 98.32
  Q 344.83 96.09 347.25 92.25
  Q 348.18 90.78 347.93 89.30
  A 0.33 0.31 -1.0 0 1 348.30 88.94
  Z
  M 102.71 111.88
  Q 101.01 111.23 102.49 110.17
  Q 106.33 107.39 109.17 104.75
  Q 113.01 101.20 114.12 97.86
  Q 115.90 92.48 112.61 86.91
  Q 109.68 81.95 103.94 80.31
  Q 100.81 79.42 97.78 79.38
  Q 94.93 79.34 91.62 79.22
  Q 88.05 79.09 84.69 80.25
  Q 79.22 82.14 79.04 82.20
  Q 69.35 85.18 63.21 93.21
  Q 61.08 96.00 61.05 98.38
  Q 60.99 101.84 64.29 103.76
  Q 65.39 104.40 66.33 104.29
  Q 67.92 104.12 67.81 102.25
  A 1.52 1.10 27.9 0 0 67.39 101.40
  Q 64.20 98.12 68.06 95.06
  Q 77.30 87.76 89.11 85.60
  Q 90.85 85.28 93.40 85.47
  Q 95.57 85.63 97.75 85.57
  Q 101.26 85.46 104.21 87.28
  Q 107.68 89.43 107.88 93.16
  Q 107.98 95.17 106.94 97.17
  Q 105.86 99.26 104.19 100.44
  Q 98.54 104.40 96.84 106.09
  Q 93.68 109.22 94.30 112.93
  Q 94.79 115.88 97.92 118.30
  Q 100.68 120.43 104.03 121.59
  A 1.47 1.34 42.5 0 0 104.98 121.59
  Q 106.70 120.95 107.36 119.42
  Q 107.98 117.98 107.08 116.16
  Q 105.47 112.93 102.71 111.88
  Z
  M 149.75 136.04
  Q 150.48 136.73 149.97 137.26
  Q 149.33 137.93 149.29 138.00
  Q 145.45 144.11 142.50 150.71
  L 141.05 151.33
  A 0.49 0.40 72.8 0 1 140.47 150.95
  Q 139.74 147.79 136.94 146.81
  Q 129.07 144.07 122.11 147.01
  Q 115.51 149.81 112.15 156.37
  Q 108.85 162.80 109.95 170.72
  Q 110.72 176.22 115.69 177.06
  Q 120.87 177.94 122.24 174.52
  Q 123.02 172.58 120.94 172.38
  Q 116.47 171.97 115.60 169.32
  Q 115.21 168.13 115.51 164.14
  Q 115.97 158.11 120.46 154.44
  Q 123.06 152.32 126.61 151.66
  Q 130.26 150.97 133.55 151.83
  Q 136.15 152.51 135.58 155.13
  Q 134.91 158.23 136.60 159.13
  Q 137.72 159.72 139.80 158.81
  Q 143.66 157.11 147.59 155.60
  Q 151.05 154.28 155.14 153.92
  Q 165.33 153.02 175.49 151.84
  Q 176.45 151.73 176.99 151.54
  Q 179.16 150.77 176.72 149.48
  Q 175.54 148.86 176.82 148.49
  Q 177.33 148.34 177.55 147.80
  A 1.54 0.58 68.3 0 0 177.53 146.83
  Q 177.26 145.70 177.96 144.70
  Q 181.71 139.42 188.18 139.78
  A 1.41 1.38 67.0 0 1 189.07 140.15
  Q 193.97 144.55 194.75 151.25
  Q 194.84 152.05 193.86 153.41
  A 1.65 1.01 -39.3 0 0 193.54 154.32
  Q 193.59 155.37 194.49 155.78
  Q 194.99 156.02 196.04 155.87
  Q 197.38 155.68 198.75 155.71
  Q 199.64 155.50 199.79 156.25
  Q 199.17 158.13 200.25 159.44
  Q 200.98 160.33 201.75 161.06
  Q 202.65 161.90 203.94 161.86
  A 1.10 0.92 -18.6 0 1 204.76 162.18
  Q 209.12 167.13 212.50 170.25
  Q 221.35 178.41 226.19 188.81
  Q 229.65 196.26 233.06 209.57
  Q 233.73 212.17 233.19 214.57
  Q 232.02 219.83 229.77 224.73
  A 0.73 0.66 34.7 0 0 229.95 225.50
  Q 230.72 226.25 230.06 227.06
  Q 227.90 229.67 227.21 233.00
  Q 225.37 234.70 225.29 236.91
  Q 225.23 238.71 227.06 240.33
  Q 229.51 242.49 232.29 244.25
  Q 233.06 247.46 236.25 248.29
  Q 237.71 249.35 238.06 250.19
  Q 240.39 255.62 240.25 261.54
  Q 237.18 261.16 235.36 263.41
  A 1.26 1.23 -29.1 0 0 235.09 264.31
  Q 235.32 266.35 237.04 267.28
  A 1.63 1.01 -25.3 0 0 238.00 267.39
  Q 240.31 266.99 240.79 269.25
  Q 239.82 273.21 240.52 277.25
  Q 240.71 278.33 239.75 278.54
  Q 236.80 277.15 235.50 279.98
  A 0.93 0.67 42.9 0 0 235.66 280.80
  Q 235.99 281.26 235.88 281.73
  A 0.82 0.53 -0.6 0 1 235.18 282.19
  Q 234.71 282.24 234.66 282.47
  A 0.80 0.38 16.2 0 0 235.30 283.04
  Q 236.44 283.37 237.31 284.69
  Q 238.05 285.79 240.04 286.50
  Q 238.04 290.76 237.36 295.38
  Q 237.35 295.47 237.40 297.11
  Q 237.43 298.21 236.50 298.79
  Q 230.77 295.09 229.59 301.00
  A 0.92 0.78 -67.3 0 0 229.86 301.85
  L 233.54 304.75
  Q 231.36 309.04 227.50 311.96
  Q 221.57 312.32 224.42 317.32
  Q 225.62 319.41 227.94 319.55
  Q 228.44 319.58 228.87 319.81
  Q 230.32 320.54 231.96 320.50
  Q 233.77 321.56 234.56 321.69
  Q 242.80 323.00 250.96 321.25
  L 251.29 325.25
  A 0.98 0.69 -83.4 0 0 251.69 325.99
  Q 252.76 326.56 253.89 327.00
  Q 255.16 327.52 256.71 327.40
  Q 261.33 327.05 265.91 326.34
  Q 266.04 326.32 267.10 326.28
  Q 268.62 326.23 268.54 324.50
  L 269.25 324.46
  Q 270.48 325.53 271.50 325.50
  Q 276.38 325.36 279.26 321.71
  A 1.22 0.93 11.8 0 1 280.06 321.33
  L 281.75 321.21
  Q 283.43 320.01 284.44 317.19
  Q 285.15 315.20 283.50 315.54
  Q 282.97 314.65 283.54 313.75
  L 284.29 311.50
  L 292.00 311.46
  Q 292.38 311.55 292.75 311.46
  L 297.05 311.34
  A 0.80 0.60 -77.5 0 0 297.64 310.83
  Q 297.92 310.06 299.22 310.82
  A 1.57 1.54 56.2 0 0 300.18 311.02
  Q 308.15 310.11 315.05 307.90
  Q 323.98 305.03 328.75 297.04
  Q 329.58 296.26 329.25 295.04
  Q 331.43 290.73 330.22 285.96
  Q 329.23 282.08 328.31 278.19
  Q 328.21 277.74 327.25 275.75
  L 324.81 270.67
  A 1.24 1.07 -23.3 0 1 325.55 269.14
  Q 329.67 267.55 333.69 265.44
  Q 334.99 264.75 335.55 263.99
  Q 335.90 263.53 336.26 263.36
  Q 341.76 260.81 345.35 255.87
  Q 347.65 252.72 347.44 247.69
  Q 347.17 241.12 344.96 236.75
  Q 344.17 232.25 341.25 228.71
  Q 334.30 218.24 324.17 210.80
  Q 317.61 205.99 312.62 198.86
  A 0.93 0.93 -44.7 0 1 312.63 197.78
  Q 314.24 195.51 315.99 193.48
  Q 323.81 184.42 327.23 172.95
  Q 327.68 171.45 327.21 170.00
  Q 327.60 168.85 327.04 167.75
  Q 327.21 165.65 326.44 164.31
  Q 317.54 148.81 299.00 144.25
  Q 282.98 140.31 274.43 139.13
  Q 274.00 139.07 273.53 138.77
  Q 272.36 138.03 270.96 138.24
  Q 269.55 138.47 269.03 138.26
  Q 267.89 137.83 267.59 136.74
  A 1.46 0.89 -49.4 0 1 267.74 135.82
  L 274.04 123.46
  A 1.37 1.22 -41.7 0 0 274.15 122.52
  Q 273.89 121.50 273.16 120.68
  Q 272.87 120.34 273.31 120.38
  Q 275.41 120.58 274.91 118.72
  A 1.48 1.40 -43.4 0 1 274.96 117.80
  Q 275.51 116.37 274.71 115.05
  Q 273.32 112.76 274.29 110.45
  A 0.96 0.79 -54.5 0 0 274.23 109.58
  Q 273.49 108.55 272.29 108.09
  A 1.72 1.53 -4.8 0 1 271.53 107.52
  Q 269.15 104.28 264.49 104.25
  A 1.45 1.43 -22.8 0 1 263.54 103.87
  Q 260.75 101.23 258.49 102.76
  A 0.55 0.55 -26.9 0 1 257.66 102.49
  Q 256.96 100.53 255.73 102.03
  A 0.75 0.72 -62.4 0 1 254.96 102.29
  Q 250.11 100.86 245.46 102.80
  A 1.36 1.09 38.7 0 1 244.54 102.80
  Q 242.79 102.16 240.61 103.49
  A 0.97 0.95 -41.0 0 1 239.51 103.42
  Q 238.38 102.50 236.80 103.77
  A 3.71 3.66 27.0 0 1 234.25 104.58
  Q 232.45 104.46 231.63 104.94
  A 1.45 0.87 -44.6 0 1 230.76 105.15
  Q 228.04 104.65 225.59 105.73
  Q 223.83 106.51 223.74 106.54
  Q 220.68 107.65 216.98 108.72
  A 0.57 0.57 76.2 0 1 216.26 108.28
  Q 214.96 101.73 213.51 95.25
  Q 212.70 91.56 209.75 90.50
  Q 207.75 89.78 205.06 89.96
  Q 203.23 90.08 200.50 90.88
  Q 172.53 99.14 156.02 122.95
  Q 153.68 126.32 152.19 128.31
  Q 150.22 130.94 148.35 133.65
  A 1.41 0.98 -39.2 0 0 148.09 134.56
  Q 148.28 135.85 149.75 136.04
  Z
  M 124.1774 125.9159
  A 7.90 6.24 -22.9 0 0 114.4719 123.2418
  A 7.90 6.24 -22.9 0 0 109.6226 132.0641
  A 7.90 6.24 -22.9 0 0 119.3281 134.7382
  A 7.90 6.24 -22.9 0 0 124.1774 125.9159
  Z
  M 324.8969 132.0471
  A 6.98 5.77 1.7 0 0 318.0912 126.0725
  A 6.98 5.77 1.7 0 0 310.9431 131.6329
  A 6.98 5.77 1.7 0 0 317.7488 137.6075
  A 6.98 5.77 1.7 0 0 324.8969 132.0471
  Z
  M 62.31 177.64
  Q 72.81 170.35 71.62 158.11
  Q 71.16 153.35 68.52 150.75
  Q 65.41 147.69 60.50 147.50
  Q 49.92 147.09 39.30 150.88
  Q 24.02 156.32 20.22 172.19
  Q 17.37 184.06 26.23 190.58
  Q 28.79 192.46 30.75 192.25
  Q 33.17 192.00 35.31 189.40
  A 1.16 1.16 -48.7 0 0 35.21 187.82
  Q 33.85 186.54 32.29 186.27
  Q 29.80 185.85 29.36 185.59
  Q 25.69 183.47 25.67 178.75
  Q 25.62 167.03 33.54 160.75
  Q 38.05 157.17 46.12 155.23
  Q 53.01 153.57 60.00 153.75
  Q 63.90 153.85 65.99 157.07
  A 1.50 1.36 -61.1 0 1 66.21 158.00
  Q 65.24 168.72 56.45 174.93
  Q 52.18 177.95 56.56 180.94
  Q 59.79 183.14 65.22 188.83
  A 0.91 0.87 61.7 0 0 66.05 189.10
  Q 68.61 188.59 70.57 186.80
  Q 72.52 185.04 70.18 183.56
  L 62.30 178.57
  A 0.57 0.55 -45.7 0 1 62.31 177.64
  Z
  M 369.00 198.96
  L 370.50 198.21
  Q 382.73 193.91 388.06 181.81
  Q 390.76 175.68 389.62 169.80
  Q 388.57 164.40 383.84 159.93
  Q 378.57 154.95 371.51 153.17
  Q 364.90 151.50 359.52 153.24
  Q 352.63 155.46 350.47 162.55
  Q 348.75 168.21 351.05 172.67
  Q 354.03 178.45 362.02 177.22
  Q 363.43 177.01 364.32 176.34
  Q 366.60 174.65 363.24 173.24
  Q 362.17 172.80 361.02 172.75
  Q 354.94 172.49 356.26 166.36
  Q 358.06 158.01 366.68 158.86
  Q 373.27 159.51 378.45 163.54
  Q 382.04 166.32 383.08 170.34
  Q 383.96 173.74 382.21 177.98
  Q 376.61 191.55 361.00 193.76
  Q 356.62 194.38 354.94 195.08
  Q 351.77 196.39 351.36 199.79
  Q 350.48 207.23 356.47 205.58
  A 1.19 1.15 5.1 0 0 357.19 205.00
  L 358.60 202.26
  A 1.16 1.10 -83.1 0 1 359.29 201.69
  L 369.00 198.96
  Z
  M 119.08 188.82
  Q 117.05 189.45 115.06 191.31
  Q 107.71 198.21 103.00 205.57
  Q 99.91 210.40 96.55 215.05
  Q 95.32 216.75 97.24 218.01
  A 1.67 1.67 -51.0 0 0 99.34 217.79
  Q 103.05 214.01 106.11 209.85
  Q 112.89 200.58 121.14 192.60
  A 1.27 1.07 -25.5 0 0 121.52 191.76
  Q 121.50 189.89 120.01 188.93
  A 1.18 1.12 -36.8 0 0 119.08 188.82
  Z
  M 76.8356 201.6789
  A 6.70 5.75 131.1 0 0 85.5730 200.4099
  A 6.70 5.75 131.1 0 0 85.6444 191.5811
  A 6.70 5.75 131.1 0 0 76.9070 192.8501
  A 6.70 5.75 131.1 0 0 76.8356 201.6789
  Z
  M 148.10 201.09
  Q 148.73 201.97 148.91 202.98
  Q 149.07 203.93 148.22 205.71
  Q 146.20 209.97 150.73 211.65
  Q 152.64 212.36 153.49 210.51
  Q 156.53 203.97 152.73 197.94
  Q 150.97 195.16 147.50 194.75
  Q 142.46 194.16 138.43 196.75
  Q 130.62 201.76 126.13 209.82
  Q 125.33 211.25 125.49 212.33
  Q 125.76 214.22 127.93 214.21
  A 1.11 1.03 -68.9 0 0 128.75 213.81
  Q 135.22 205.91 140.06 201.56
  Q 142.77 199.13 146.46 200.02
  Q 147.53 200.28 148.10 201.09
  Z
  M 187.45 201.79
  Q 185.39 199.97 182.00 200.25
  Q 169.92 201.25 165.20 211.54
  A 1.42 1.27 -43.4 0 0 165.12 212.49
  Q 165.87 214.98 168.57 214.86
  A 1.03 0.91 -73.5 0 0 169.32 214.39
  Q 172.65 208.93 177.75 206.75
  Q 181.88 204.98 184.16 207.66
  Q 185.74 209.52 185.77 212.70
  Q 185.80 215.44 184.79 218.11
  A 1.52 1.51 15.9 0 0 185.92 220.13
  Q 186.82 220.32 187.53 221.62
  Q 188.30 223.04 189.08 221.63
  Q 192.43 215.62 191.05 209.26
  Q 190.47 206.58 189.92 205.24
  Q 189.11 203.27 187.45 201.79
  Z
  M 348.75 214.99
  Q 345.96 218.15 348.50 220.75
  Q 353.78 226.16 360.21 221.25
  Q 363.29 218.90 361.07 215.68
  Q 355.40 207.45 348.75 214.99
  Z
  M 31.46 256.96
  Q 30.46 252.45 28.47 248.37
  Q 27.48 246.36 25.25 246.47
  Q 22.21 246.63 21.31 248.54
  Q 21.18 248.82 20.58 252.36
  Q 19.30 259.90 19.95 267.51
  Q 20.25 271.02 21.62 272.63
  Q 23.52 274.88 27.00 275.01
  Q 30.50 275.14 31.50 272.00
  Q 32.31 269.44 34.46 269.82
  Q 37.02 270.26 37.12 270.27
  Q 58.03 270.52 78.94 270.93
  A 1.68 1.61 -59.9 0 0 79.87 270.66
  L 80.38 270.34
  A 1.24 1.19 34.1 0 1 81.30 270.18
  Q 83.49 270.67 88.00 270.75
  Q 96.25 270.89 104.50 270.42
  Q 107.34 270.25 109.48 268.83
  A 1.02 1.02 -42.0 0 0 109.57 267.20
  Q 108.38 266.19 106.95 265.65
  Q 105.88 265.25 104.00 265.24
  Q 87.41 265.08 70.82 264.70
  Q 63.32 264.53 54.66 264.69
  Q 41.39 264.93 38.50 264.50
  Q 36.24 264.16 33.98 263.75
  Q 32.55 263.48 33.84 262.80
  Q 49.41 254.50 64.77 245.74
  Q 77.88 238.27 89.79 229.00
  A 1.36 1.07 -20.3 0 0 90.28 228.20
  Q 90.57 226.21 88.73 225.62
  A 1.37 1.08 -44.3 0 0 87.80 225.72
  Q 82.74 228.23 77.92 231.16
  Q 55.34 244.86 32.00 257.21
  A 0.38 0.37 69.6 0 1 31.46 256.96
  Z
  M 132.68 265.93
  Q 132.69 268.72 134.64 270.24
  Q 136.16 271.43 138.64 271.22
  Q 141.39 270.99 142.69 269.69
  Q 146.29 266.08 149.23 261.38
  A 0.61 0.61 35.3 0 1 150.12 261.23
  Q 151.57 262.40 153.06 263.55
  Q 154.91 264.97 156.37 265.16
  Q 159.62 265.59 161.50 262.50
  Q 164.93 256.85 163.55 250.73
  Q 162.57 246.45 159.12 244.01
  Q 155.58 241.52 151.00 241.25
  Q 146.29 240.98 141.77 242.33
  Q 137.04 243.75 133.79 246.70
  Q 126.47 253.36 129.91 264.21
  A 0.97 0.78 2.4 0 0 130.55 264.77
  L 132.22 265.25
  A 0.74 0.63 -83.9 0 1 132.68 265.93
  Z
  M 187.44 284.06
  Q 191.73 286.30 196.89 286.67
  Q 199.77 286.88 200.59 286.67
  Q 202.67 286.12 203.11 283.27
  A 1.19 1.16 -79.3 0 0 202.22 281.93
  L 192.38 279.73
  Q 190.53 279.31 190.91 277.50
  Q 191.46 274.85 194.18 272.68
  Q 197.36 270.13 200.40 267.23
  Q 202.55 265.18 199.66 264.49
  Q 197.10 263.88 194.07 266.03
  Q 191.09 268.14 188.46 270.66
  Q 186.42 272.61 185.72 274.75
  Q 184.94 277.15 184.96 279.75
  Q 185.00 282.79 187.44 284.06
  Z
  M 119.70 313.76
  L 123.58 311.01
  A 0.92 0.74 37.6 0 1 124.44 310.99
  Q 126.69 312.08 127.31 309.56
  Q 128.12 306.29 125.18 303.52
  A 1.30 1.23 21.1 0 1 124.78 302.68
  Q 124.20 293.32 127.50 283.78
  A 1.15 1.14 -68.8 0 0 126.88 282.36
  Q 123.98 281.07 122.52 284.01
  Q 121.81 285.42 121.02 286.88
  A 0.41 0.41 34.2 0 1 120.39 287.00
  Q 117.80 284.83 114.56 284.19
  Q 113.57 283.99 112.92 284.25
  A 0.80 0.76 -36.7 0 1 112.14 284.16
  L 109.99 282.56
  Q 108.03 281.09 109.19 279.34
  Q 111.39 276.02 114.53 273.73
  A 1.31 1.11 -17.5 0 0 115.03 272.94
  Q 115.41 270.54 113.55 269.95
  Q 112.27 269.54 110.58 270.40
  Q 106.31 272.56 104.00 276.57
  Q 101.87 280.29 102.71 283.72
  Q 103.72 287.87 108.50 289.50
  Q 109.55 289.86 114.33 291.07
  A 2.04 1.34 -35.7 0 0 115.29 291.03
  Q 116.80 290.60 117.86 291.45
  Q 118.77 292.17 118.80 293.89
  Q 118.88 297.84 118.00 300.75
  Q 117.31 303.03 119.04 303.83
  A 0.75 0.63 16.4 0 1 119.48 304.50
  Q 119.24 307.17 116.44 308.94
  Q 113.57 310.74 113.72 314.51
  A 1.34 1.17 -29.5 0 1 113.42 315.36
  Q 112.11 316.96 113.69 318.57
  A 2.76 2.76 25.0 0 1 114.48 320.73
  Q 114.31 322.89 116.32 324.19
  Q 119.24 326.08 122.74 325.84
  Q 126.33 325.59 129.84 326.30
  Q 129.90 326.31 131.58 326.93
  Q 132.84 327.39 133.93 326.62
  A 1.70 1.54 -60.4 0 1 134.81 326.33
  Q 137.42 326.30 137.51 323.29
  A 0.71 0.71 10.8 0 1 138.46 322.65
  Q 141.06 323.57 143.29 322.70
  A 1.79 1.28 -41.4 0 1 144.24 322.60
  Q 145.05 322.77 145.82 323.04
  Q 146.91 323.42 147.89 323.37
  Q 151.91 323.16 155.69 323.47
  A 1.36 1.35 -74.3 0 0 157.02 322.72
  Q 157.89 320.96 158.36 320.98
  A 0.63 0.32 -71.1 0 1 158.47 321.77
  Q 157.63 323.69 159.49 323.42
  Q 160.58 323.26 161.03 323.27
  Q 163.72 323.36 166.41 323.45
  Q 166.55 323.46 169.04 323.83
  Q 171.70 324.23 173.08 321.87
  A 2.12 2.11 -54.4 0 0 172.64 319.20
  Q 169.32 316.34 165.50 316.51
  Q 159.25 316.77 153.42 316.52
  A 1.80 1.80 -66.8 0 0 152.09 317.01
  Q 148.99 319.84 150.44 317.08
  Q 150.80 316.37 150.01 316.45
  Q 143.91 317.04 138.32 316.52
  Q 134.31 316.16 134.58 320.25
  A 0.45 0.45 1.1 0 1 134.08 320.73
  Q 133.03 320.61 131.90 320.52
  Q 130.97 320.44 129.86 319.90
  Q 127.59 318.79 125.12 319.18
  Q 123.23 319.47 122.37 319.20
  Q 120.99 318.77 119.87 317.83
  A 0.91 0.78 -66.5 0 1 119.62 317.01
  Q 119.87 315.75 119.49 314.54
  A 0.73 0.61 65.2 0 1 119.70 313.76
  Z
  M 201.05 323.59
  Q 208.70 324.01 216.26 322.75
  A 1.47 1.47 83.3 0 0 217.48 321.20
  Q 217.41 320.20 218.28 319.48
  A 0.49 0.44 -40.8 0 0 218.37 318.81
  Q 217.46 317.80 216.28 317.25
  Q 215.30 316.79 213.80 317.04
  Q 211.63 317.41 209.44 317.61
  Q 208.80 317.67 206.13 318.21
  Q 204.46 318.55 202.73 318.32
  A 1.06 0.89 -61.1 0 0 201.93 318.63
  Q 201.16 319.38 200.15 319.20
  Q 198.92 318.98 198.80 318.98
  Q 194.02 318.84 189.24 318.50
  Q 185.59 318.24 187.35 315.03
  Q 189.79 310.61 194.94 308.19
  Q 197.64 306.92 196.48 304.49
  Q 195.98 303.43 194.92 303.19
  Q 193.77 302.93 192.70 303.47
  Q 190.59 304.54 190.50 304.58
  Q 184.85 306.60 181.11 311.35
  Q 180.04 312.70 180.37 314.26
  A 1.35 0.61 70.1 0 1 180.30 315.20
  L 179.84 315.89
  A 1.09 0.73 -44.1 0 0 179.66 316.73
  Q 180.22 318.36 180.82 319.97
  Q 181.52 321.84 182.57 322.85
  Q 185.81 326.00 190.51 324.88
  A 1.67 1.65 -41.5 0 1 191.47 324.93
  Q 194.65 326.06 198.02 325.36
  Q 198.46 325.27 198.98 325.39
  Q 200.73 325.80 200.62 324.06
  A 0.44 0.41 89.3 0 1 201.05 323.59
  Z"
/>
<path fill="#030303" d="
  M 347.93 89.30
  Q 348.18 90.78 347.25 92.25
  Q 344.83 96.09 341.61 98.32
  Q 334.19 103.46 326.00 107.25
  Q 323.50 108.41 320.97 110.32
  A 1.14 1.13 58.5 0 0 320.64 111.72
  Q 322.47 115.41 322.03 118.44
  A 1.16 1.11 78.9 0 1 321.53 119.22
  Q 319.17 120.75 317.31 119.19
  Q 312.66 115.26 313.81 109.31
  Q 314.55 105.48 318.12 103.56
  Q 320.74 102.16 323.40 100.85
  Q 324.15 100.48 328.81 98.47
  Q 335.77 95.46 340.69 90.94
  Q 348.48 83.76 339.81 77.44
  Q 336.66 75.14 331.25 74.24
  Q 319.93 72.35 309.30 75.97
  Q 305.08 77.41 303.26 80.02
  Q 300.89 83.44 300.75 88.50
  Q 300.65 92.16 298.25 90.47
  Q 297.31 89.81 296.76 88.61
  Q 295.22 85.27 296.00 82.25
  Q 297.66 75.83 304.37 72.42
  Q 322.62 63.14 341.19 70.81
  Q 352.59 75.52 349.68 88.09
  A 1.19 0.82 -89.0 0 1 349.14 88.84
  Q 348.76 89.01 348.30 88.94
  A 0.33 0.31 -1.0 0 0 347.93 89.30
  Z"
/>
<path fill="#080808" d="
  M 102.71 111.88
  Q 105.47 112.93 107.08 116.16
  Q 107.98 117.98 107.36 119.42
  Q 106.70 120.95 104.98 121.59
  A 1.47 1.34 42.5 0 1 104.03 121.59
  Q 100.68 120.43 97.92 118.30
  Q 94.79 115.88 94.30 112.93
  Q 93.68 109.22 96.84 106.09
  Q 98.54 104.40 104.19 100.44
  Q 105.86 99.26 106.94 97.17
  Q 107.98 95.17 107.88 93.16
  Q 107.68 89.43 104.21 87.28
  Q 101.26 85.46 97.75 85.57
  Q 95.57 85.63 93.40 85.47
  Q 90.85 85.28 89.11 85.60
  Q 77.30 87.76 68.06 95.06
  Q 64.20 98.12 67.39 101.40
  A 1.52 1.10 27.9 0 1 67.81 102.25
  Q 67.92 104.12 66.33 104.29
  Q 65.39 104.40 64.29 103.76
  Q 60.99 101.84 61.05 98.38
  Q 61.08 96.00 63.21 93.21
  Q 69.35 85.18 79.04 82.20
  Q 79.22 82.14 84.69 80.25
  Q 88.05 79.09 91.62 79.22
  Q 94.93 79.34 97.78 79.38
  Q 100.81 79.42 103.94 80.31
  Q 109.68 81.95 112.61 86.91
  Q 115.90 92.48 114.12 97.86
  Q 113.01 101.20 109.17 104.75
  Q 106.33 107.39 102.49 110.17
  Q 101.01 111.23 102.71 111.88
  Z"
/>
<path fill="#030303" d="
  M 327.04 167.75
  Q 326.62 168.59 325.69 168.69
  A 0.42 0.36 -11.9 0 0 325.31 169.18
  Q 325.71 170.23 327.21 170.00
  Q 327.68 171.45 327.23 172.95
  Q 323.81 184.42 315.99 193.48
  Q 314.24 195.51 312.63 197.78
  A 0.93 0.93 -44.7 0 0 312.62 198.86
  Q 317.61 205.99 324.17 210.80
  Q 334.30 218.24 341.25 228.71
  Q 340.32 228.63 339.80 229.11
  A 0.65 0.49 50.8 0 0 339.83 229.87
  L 344.96 236.75
  Q 347.17 241.12 347.44 247.69
  Q 347.65 252.72 345.35 255.87
  Q 341.76 260.81 336.26 263.36
  Q 335.90 263.53 335.55 263.99
  Q 334.99 264.75 333.69 265.44
  Q 329.67 267.55 325.55 269.14
  A 1.24 1.07 -23.3 0 0 324.81 270.67
  L 327.25 275.75
  Q 328.21 277.74 328.31 278.19
  Q 329.23 282.08 330.22 285.96
  Q 331.43 290.73 329.25 295.04
  Q 327.93 295.69 328.75 297.04
  Q 323.98 305.03 315.05 307.90
  Q 308.15 310.11 300.18 311.02
  A 1.57 1.54 56.2 0 1 299.22 310.82
  Q 297.92 310.06 297.64 310.83
  A 0.80 0.60 -77.5 0 1 297.05 311.34
  L 292.75 311.46
  Q 292.47 308.53 292.00 311.46
  L 284.29 311.50
  Q 282.48 311.73 283.54 313.75
  Q 282.97 314.65 283.50 315.54
  Q 283.37 317.18 281.81 317.50
  A 0.54 0.51 -9.1 0 0 281.38 318.06
  L 281.75 321.21
  L 280.06 321.33
  A 1.22 0.93 11.8 0 0 279.26 321.71
  Q 276.38 325.36 271.50 325.50
  Q 270.48 325.53 269.25 324.46
  Q 268.88 323.66 269.44 322.94
  Q 269.87 322.39 269.69 322.16
  A 0.63 0.41 -44.9 0 0 268.90 322.32
  Q 268.11 323.18 268.54 324.50
  Q 268.62 326.23 267.10 326.28
  Q 266.04 326.32 265.91 326.34
  Q 261.33 327.05 256.71 327.40
  Q 255.16 327.52 253.89 327.00
  Q 252.76 326.56 251.69 325.99
  A 0.98 0.69 -83.4 0 1 251.29 325.25
  L 250.96 321.25
  Q 253.05 318.55 256.90 320.19
  A 0.88 0.86 -58.6 0 0 257.92 319.93
  Q 259.30 318.23 261.75 318.75
  Q 264.76 319.39 271.04 317.75
  Q 274.09 317.48 276.16 315.37
  A 0.71 0.61 -40.5 0 0 276.29 314.55
  Q 276.01 314.15 275.50 313.96
  Q 273.72 312.67 274.75 310.96
  Q 279.15 310.25 275.46 308.25
  Q 280.66 301.50 289.25 303.04
  L 290.98 305.58
  A 0.57 0.49 55.5 0 0 291.70 305.77
  L 294.00 304.21
  L 295.58 304.99
  A 0.70 0.66 35.1 0 0 296.35 304.88
  Q 297.94 303.28 300.15 303.04
  Q 302.25 302.81 302.34 302.79
  Q 303.99 302.46 305.62 302.11
  Q 306.33 301.96 308.91 301.56
  Q 314.07 300.76 318.25 297.54
  Q 323.13 294.24 322.47 288.25
  Q 321.92 283.31 319.75 278.93
  Q 318.50 276.40 318.07 275.35
  Q 317.30 273.51 316.50 271.71
  Q 316.11 268.78 318.25 264.89
  A 3.86 3.86 -89.4 0 1 319.84 263.33
  Q 325.17 260.56 330.37 257.93
  Q 334.63 255.79 337.80 252.33
  Q 339.53 250.44 339.92 248.68
  Q 340.39 246.59 339.75 244.25
  Q 336.86 233.70 329.83 226.09
  Q 328.97 225.16 322.81 219.27
  Q 318.01 214.69 315.44 212.81
  Q 308.68 207.87 304.75 200.50
  Q 303.75 198.63 305.06 196.31
  Q 308.42 190.35 312.71 185.00
  Q 318.12 178.37 320.71 170.25
  Q 318.59 164.04 313.06 159.44
  Q 307.58 154.88 302.51 152.17
  Q 302.25 152.04 301.75 151.54
  Q 301.07 150.86 300.32 151.80
  A 0.94 0.93 -60.0 0 1 299.25 152.09
  Q 291.34 149.01 283.02 147.72
  Q 278.29 146.98 276.02 146.48
  Q 272.56 145.71 269.09 144.96
  Q 267.52 144.61 264.90 144.88
  Q 258.54 145.53 260.25 138.00
  Q 261.60 132.08 267.24 122.92
  A 1.84 1.79 62.1 0 0 267.51 122.00
  Q 267.54 119.89 267.84 117.81
  Q 268.33 114.39 267.89 113.19
  Q 266.92 110.53 263.31 110.44
  Q 259.93 110.35 257.99 107.96
  A 0.85 0.76 62.7 0 0 257.20 107.66
  Q 256.62 107.80 256.05 107.97
  Q 255.17 108.25 254.40 108.27
  Q 248.55 108.41 242.73 109.01
  Q 241.17 109.17 237.52 110.18
  Q 235.32 110.79 232.25 111.25
  Q 225.28 112.30 217.20 116.04
  A 1.36 0.98 35.2 0 1 216.30 116.05
  L 215.73 115.86
  A 1.41 0.75 -36.7 0 0 214.81 116.00
  Q 213.73 116.51 212.80 116.01
  Q 212.14 115.66 211.71 114.58
  Q 209.43 108.93 209.06 102.83
  Q 209.05 102.74 209.10 100.19
  Q 209.20 94.62 203.01 95.81
  Q 198.24 96.73 193.96 99.00
  Q 181.47 103.76 171.44 113.44
  Q 164.96 119.68 160.46 125.75
  Q 156.97 129.85 153.19 133.69
  Q 151.25 135.66 149.75 136.04
  Q 148.28 135.85 148.09 134.56
  A 1.41 0.98 -39.2 0 1 148.35 133.65
  Q 150.22 130.94 152.19 128.31
  Q 153.68 126.32 156.02 122.95
  Q 172.53 99.14 200.50 90.88
  Q 203.23 90.08 205.06 89.96
  Q 207.75 89.78 209.75 90.50
  Q 212.70 91.56 213.51 95.25
  Q 214.96 101.73 216.26 108.28
  A 0.57 0.57 76.2 0 0 216.98 108.72
  Q 220.68 107.65 223.74 106.54
  Q 223.83 106.51 225.59 105.73
  Q 228.04 104.65 230.76 105.15
  A 1.45 0.87 -44.6 0 0 231.63 104.94
  Q 232.45 104.46 234.25 104.58
  A 3.71 3.66 27.0 0 0 236.80 103.77
  Q 238.38 102.50 239.51 103.42
  A 0.97 0.95 -41.0 0 0 240.61 103.49
  Q 242.79 102.16 244.54 102.80
  A 1.36 1.09 38.7 0 0 245.46 102.80
  Q 250.11 100.86 254.96 102.29
  A 0.75 0.72 -62.4 0 0 255.73 102.03
  Q 256.96 100.53 257.66 102.49
  A 0.55 0.55 -26.9 0 0 258.49 102.76
  Q 260.75 101.23 263.54 103.87
  A 1.45 1.43 -22.8 0 0 264.49 104.25
  Q 269.15 104.28 271.53 107.52
  A 1.72 1.53 -4.8 0 0 272.29 108.09
  Q 273.49 108.55 274.23 109.58
  A 0.96 0.79 -54.5 0 1 274.29 110.45
  Q 273.32 112.76 274.71 115.05
  Q 275.51 116.37 274.96 117.80
  A 1.48 1.40 -43.4 0 0 274.91 118.72
  Q 275.41 120.58 273.31 120.38
  Q 272.87 120.34 273.16 120.68
  Q 273.89 121.50 274.15 122.52
  A 1.37 1.22 -41.7 0 1 274.04 123.46
  L 267.74 135.82
  A 1.46 0.89 -49.4 0 0 267.59 136.74
  Q 267.89 137.83 269.03 138.26
  Q 269.55 138.47 270.96 138.24
  Q 272.36 138.03 273.53 138.77
  Q 274.00 139.07 274.43 139.13
  Q 282.98 140.31 299.00 144.25
  Q 317.54 148.81 326.44 164.31
  Q 327.21 165.65 327.04 167.75
  Z
  M 270.21 139.64
  Q 270.43 141.96 270.78 139.64
  Q 270.82 139.43 270.77 139.25
  Q 270.50 138.21 270.24 139.23
  Q 270.19 139.43 270.21 139.64
  Z
  M 278.9825 142.7081
  A 0.78 0.42 20.1 0 0 278.3943 142.0456
  A 0.78 0.42 20.1 0 0 277.5175 142.1719
  A 0.78 0.42 20.1 0 0 278.1057 142.8344
  A 0.78 0.42 20.1 0 0 278.9825 142.7081
  Z
  M 334.13 257.40
  Q 332.77 259.68 334.62 257.98
  A 0.99 0.88 -24.7 0 0 334.94 257.25
  Q 334.90 256.10 334.13 257.40
  Z
  M 320.7125 271.6353
  A 0.81 0.43 28.4 0 0 320.2045 270.8718
  A 0.81 0.43 28.4 0 0 319.2875 270.8647
  A 0.81 0.43 28.4 0 0 319.7955 271.6282
  A 0.81 0.43 28.4 0 0 320.7125 271.6353
  Z
  M 320.41 274.81
  Q 320.63 274.56 320.43 274.27
  A 1.04 0.79 -17.3 0 0 319.56 273.95
  Q 318.53 274.06 319.69 274.83
  A 0.60 0.48 37.0 0 0 320.41 274.81
  Z
  M 328.9337 282.8669
  A 0.75 0.57 -40.1 0 0 327.9928 282.9140
  A 0.75 0.57 -40.1 0 0 327.7863 283.8331
  A 0.75 0.57 -40.1 0 0 328.7272 283.7860
  A 0.75 0.57 -40.1 0 0 328.9337 282.8669
  Z
  M 314.49 303.58
  Q 315.67 302.91 315.11 302.74
  Q 314.78 302.64 314.30 302.84
  Q 312.73 303.51 313.57 303.73
  A 1.33 1.07 -48.2 0 0 314.49 303.58
  Z
  M 282.2568 307.4789
  A 1.16 0.86 129.2 0 0 283.6565 307.1235
  A 1.16 0.86 129.2 0 0 283.7232 305.6811
  A 1.16 0.86 129.2 0 0 282.3235 306.0365
  A 1.16 0.86 129.2 0 0 282.2568 307.4789
  Z
  M 277.0641 320.1859
  A 0.97 0.48 135.0 0 0 278.0894 319.8394
  A 0.97 0.48 135.0 0 0 278.4359 318.8141
  A 0.97 0.48 135.0 0 0 277.4106 319.1606
  A 0.97 0.48 135.0 0 0 277.0641 320.1859
  Z"
/>
<path fill="#c0a393" d="
  M 320.71 170.25
  Q 319.79 170.12 319.53 170.82
  Q 319.30 171.41 319.24 171.51
  Q 315.60 177.50 312.60 183.83
  Q 312.30 184.48 312.71 185.00
  Q 308.42 190.35 305.06 196.31
  Q 303.75 198.63 304.75 200.50
  Q 308.68 207.87 315.44 212.81
  Q 318.01 214.69 322.81 219.27
  Q 328.97 225.16 329.83 226.09
  Q 336.86 233.70 339.75 244.25
  Q 340.39 246.59 339.92 248.68
  Q 339.53 250.44 337.80 252.33
  Q 334.63 255.79 330.37 257.93
  Q 325.17 260.56 319.84 263.33
  A 3.86 3.86 -89.4 0 0 318.25 264.89
  Q 316.11 268.78 316.50 271.71
  Q 315.12 271.47 315.56 272.44
  Q 317.59 276.81 318.92 280.81
  Q 320.75 286.34 320.83 288.64
  Q 320.99 292.97 317.85 296.60
  Q 317.03 297.55 318.25 297.54
  Q 314.07 300.76 308.91 301.56
  Q 306.33 301.96 305.62 302.11
  Q 303.99 302.46 302.34 302.79
  Q 302.25 302.81 300.15 303.04
  Q 297.94 303.28 296.35 304.88
  A 0.70 0.66 35.1 0 1 295.58 304.99
  L 294.00 304.21
  Q 291.91 302.60 289.25 303.04
  Q 280.66 301.50 275.46 308.25
  L 274.75 310.96
  Q 273.72 312.67 275.50 313.96
  Q 272.67 315.17 271.04 317.75
  Q 264.76 319.39 261.75 318.75
  Q 259.30 318.23 257.92 319.93
  A 0.88 0.86 -58.6 0 1 256.90 320.19
  Q 253.05 318.55 250.96 321.25
  Q 242.80 323.00 234.56 321.69
  Q 233.77 321.56 231.96 320.50
  Q 232.45 314.85 227.50 311.96
  Q 231.36 309.04 233.54 304.75
  Q 236.42 306.54 239.75 306.73
  A 1.36 1.18 23.8 0 0 240.65 306.45
  Q 242.57 304.88 241.06 302.69
  Q 240.37 301.68 236.50 298.79
  Q 237.43 298.21 237.40 297.11
  Q 237.35 295.47 237.36 295.38
  Q 238.04 290.76 240.04 286.50
  Q 243.78 288.72 247.37 287.08
  A 1.70 1.69 65.1 0 0 248.19 284.82
  Q 247.32 282.98 245.71 281.92
  Q 243.38 280.37 243.11 280.17
  Q 241.59 279.07 239.75 278.54
  Q 240.71 278.33 240.52 277.25
  Q 239.82 273.21 240.79 269.25
  Q 241.92 269.15 247.00 269.25
  Q 249.22 269.30 249.32 267.51
  Q 249.37 266.43 248.39 265.40
  Q 245.15 262.03 240.25 261.54
  Q 240.39 255.62 238.06 250.19
  Q 237.71 249.35 236.25 248.29
  Q 239.96 248.05 241.50 248.25
  Q 245.92 248.81 249.32 246.06
  A 1.20 1.20 47.9 0 0 249.41 244.28
  Q 247.87 242.77 245.50 242.47
  Q 240.07 241.77 234.75 243.00
  Q 233.10 243.38 232.29 244.25
  Q 229.51 242.49 227.06 240.33
  Q 225.23 238.71 225.29 236.91
  Q 225.37 234.70 227.21 233.00
  Q 229.66 235.77 230.88 232.79
  Q 231.40 231.53 231.71 232.85
  Q 232.31 235.32 233.49 233.47
  Q 236.71 228.43 238.65 222.76
  Q 240.44 217.53 240.06 212.21
  Q 239.82 208.88 238.00 201.97
  Q 235.64 192.96 231.49 184.66
  Q 228.16 178.01 222.76 171.70
  Q 217.24 165.25 211.69 160.56
  Q 208.31 157.71 202.98 156.60
  Q 202.61 156.52 202.10 156.20
  Q 200.99 155.50 199.79 156.25
  Q 199.64 155.50 198.75 155.71
  Q 200.36 155.07 201.25 153.69
  A 1.63 1.33 64.1 0 0 201.47 152.75
  Q 201.31 150.52 200.94 148.32
  Q 200.93 148.28 200.69 146.17
  Q 200.44 143.95 199.06 142.44
  Q 196.82 139.97 196.06 137.44
  Q 195.41 135.26 192.72 134.39
  A 1.67 0.66 -24.6 0 0 191.78 134.44
  Q 191.13 134.62 190.78 134.14
  A 1.26 0.69 65.4 0 0 190.07 133.61
  Q 180.99 132.22 175.00 138.41
  Q 173.77 139.68 172.65 142.06
  Q 171.71 144.05 170.67 146.00
  A 0.85 0.59 10.0 0 1 169.96 146.33
  L 165.56 146.22
  A 0.66 0.52 -86.1 0 0 165.02 146.82
  Q 164.70 149.56 163.41 147.02
  A 0.55 0.52 65.0 0 0 162.74 146.76
  Q 160.54 147.68 157.50 147.50
  Q 153.40 147.26 149.06 149.31
  Q 148.05 149.79 147.23 149.65
  A 1.60 1.00 26.3 0 0 146.31 149.74
  Q 144.51 150.65 142.50 150.71
  Q 145.45 144.11 149.29 138.00
  Q 149.33 137.93 149.97 137.26
  Q 150.48 136.73 149.75 136.04
  Q 151.25 135.66 153.19 133.69
  Q 156.97 129.85 160.46 125.75
  Q 160.89 126.84 161.69 125.94
  Q 175.67 110.05 193.29 100.12
  Q 193.37 100.07 193.73 99.96
  Q 194.27 99.78 193.96 99.00
  Q 198.24 96.73 203.01 95.81
  Q 209.20 94.62 209.10 100.19
  Q 209.05 102.74 209.06 102.83
  Q 209.43 108.93 211.71 114.58
  Q 212.14 115.66 212.80 116.01
  Q 213.73 116.51 214.81 116.00
  A 1.41 0.75 -36.7 0 1 215.73 115.86
  L 216.30 116.05
  A 1.36 0.98 35.2 0 0 217.20 116.04
  Q 225.28 112.30 232.25 111.25
  Q 235.32 110.79 237.52 110.18
  Q 241.17 109.17 242.73 109.01
  Q 248.55 108.41 254.40 108.27
  Q 255.17 108.25 256.05 107.97
  Q 256.62 107.80 257.20 107.66
  A 0.85 0.76 62.7 0 1 257.99 107.96
  Q 259.93 110.35 263.31 110.44
  Q 266.92 110.53 267.89 113.19
  Q 268.33 114.39 267.84 117.81
  Q 267.54 119.89 267.51 122.00
  A 1.84 1.79 62.1 0 1 267.24 122.92
  Q 261.60 132.08 260.25 138.00
  Q 258.54 145.53 264.90 144.88
  Q 267.52 144.61 269.09 144.96
  Q 272.56 145.71 276.02 146.48
  Q 278.29 146.98 283.02 147.72
  Q 291.34 149.01 299.25 152.09
  A 0.94 0.93 -60.0 0 0 300.32 151.80
  Q 301.07 150.86 301.75 151.54
  Q 302.25 152.04 302.51 152.17
  Q 307.58 154.88 313.06 159.44
  Q 318.59 164.04 320.71 170.25
  Z
  M 219.68 135.87
  Q 221.62 136.31 223.71 135.81
  A 1.41 1.39 -77.2 0 0 224.51 135.30
  Q 226.53 132.70 226.44 129.40
  A 0.77 0.77 81.0 0 0 225.45 128.68
  Q 220.94 130.00 218.94 134.37
  A 1.08 1.08 -71.3 0 0 219.68 135.87
  Z
  M 240.3700 140.6413
  A 7.52 2.78 -37.7 0 0 232.7200 143.0404
  A 7.52 2.78 -37.7 0 0 228.4700 149.8387
  A 7.52 2.78 -37.7 0 0 236.1200 147.4396
  A 7.52 2.78 -37.7 0 0 240.3700 140.6413
  Z
  M 268.1454 174.9006
  A 2.33 2.33 0.0 0 0 264.9400 174.1370
  L 259.4038 177.5429
  A 2.33 2.33 0.0 0 0 258.6402 180.7483
  L 258.9546 181.2594
  A 2.33 2.33 0.0 0 0 262.1600 182.0230
  L 267.6962 178.6171
  A 2.33 2.33 0.0 0 0 268.4598 175.4117
  L 268.1454 174.9006
  Z
  M 276.70 214.68
  Q 276.91 217.47 280.33 217.03
  Q 282.61 216.73 281.52 214.71
  Q 279.41 210.81 276.99 213.79
  A 1.29 1.19 -29.1 0 0 276.70 214.68
  Z
  M 280.69 238.18
  Q 279.54 243.89 286.13 242.06
  A 1.43 1.43 -23.8 0 0 286.96 239.92
  Q 285.16 237.07 282.16 237.00
  A 1.48 1.47 6.1 0 0 280.69 238.18
  Z
  M 275.64 267.68
  Q 280.13 269.70 284.69 268.96
  Q 287.50 268.50 288.30 266.04
  A 0.88 0.86 33.2 0 0 288.11 265.18
  Q 286.15 263.03 283.20 263.15
  Q 282.84 263.16 282.30 263.49
  Q 281.79 263.79 281.27 263.64
  Q 280.37 263.40 280.33 263.39
  Q 278.12 263.25 276.13 264.21
  A 0.97 0.96 -8.4 0 0 275.59 264.93
  L 275.25 266.98
  A 0.67 0.64 16.9 0 0 275.64 267.68
  Z"
/>
<path fill="#ffffff" d="
  M 193.96 99.00
  Q 194.27 99.78 193.73 99.96
  Q 193.37 100.07 193.29 100.12
  Q 175.67 110.05 161.69 125.94
  Q 160.89 126.84 160.46 125.75
  Q 164.96 119.68 171.44 113.44
  Q 181.47 103.76 193.96 99.00
  Z"
/>
<ellipse fill="#010101" cx="0.00" cy="0.00" transform="translate(116.90,128.99) rotate(-22.9)" rx="7.90" ry="6.24"/>
<ellipse fill="#010101" cx="0.00" cy="0.00" transform="translate(317.92,131.84) rotate(1.7)" rx="6.98" ry="5.77"/>
<path fill="#010101" d="
  M 219.68 135.87
  A 1.08 1.08 -71.3 0 1 218.94 134.37
  Q 220.94 130.00 225.45 128.68
  A 0.77 0.77 81.0 0 1 226.44 129.40
  Q 226.53 132.70 224.51 135.30
  A 1.41 1.39 -77.2 0 1 223.71 135.81
  Q 221.62 136.31 219.68 135.87
  Z"
/>
<path fill="#010101" d="
  M 198.75 155.71
  Q 197.38 155.68 196.04 155.87
  Q 194.99 156.02 194.49 155.78
  Q 193.59 155.37 193.54 154.32
  A 1.65 1.01 -39.3 0 1 193.86 153.41
  Q 194.84 152.05 194.75 151.25
  Q 193.97 144.55 189.07 140.15
  A 1.41 1.38 67.0 0 0 188.18 139.78
  Q 181.71 139.42 177.96 144.70
  Q 177.26 145.70 177.53 146.83
  A 1.54 0.58 68.3 0 1 177.55 147.80
  Q 177.33 148.34 176.82 148.49
  Q 175.54 148.86 176.72 149.48
  Q 179.16 150.77 176.99 151.54
  Q 176.45 151.73 175.49 151.84
  Q 165.33 153.02 155.14 153.92
  Q 151.05 154.28 147.59 155.60
  Q 143.66 157.11 139.80 158.81
  Q 137.72 159.72 136.60 159.13
  Q 134.91 158.23 135.58 155.13
  Q 136.15 152.51 133.55 151.83
  Q 130.26 150.97 126.61 151.66
  Q 123.06 152.32 120.46 154.44
  Q 115.97 158.11 115.51 164.14
  Q 115.21 168.13 115.60 169.32
  Q 116.47 171.97 120.94 172.38
  Q 123.02 172.58 122.24 174.52
  Q 120.87 177.94 115.69 177.06
  Q 110.72 176.22 109.95 170.72
  Q 108.85 162.80 112.15 156.37
  Q 115.51 149.81 122.11 147.01
  Q 129.07 144.07 136.94 146.81
  Q 139.74 147.79 140.47 150.95
  A 0.49 0.40 72.8 0 0 141.05 151.33
  L 142.50 150.71
  Q 144.51 150.65 146.31 149.74
  A 1.60 1.00 26.3 0 1 147.23 149.65
  Q 148.05 149.79 149.06 149.31
  Q 153.40 147.26 157.50 147.50
  Q 160.54 147.68 162.74 146.76
  A 0.55 0.52 65.0 0 1 163.41 147.02
  Q 164.70 149.56 165.02 146.82
  A 0.66 0.52 -86.1 0 1 165.56 146.22
  L 169.96 146.33
  A 0.85 0.59 10.0 0 0 170.67 146.00
  Q 171.71 144.05 172.65 142.06
  Q 173.77 139.68 175.00 138.41
  Q 180.99 132.22 190.07 133.61
  A 1.26 0.69 65.4 0 1 190.78 134.14
  Q 191.13 134.62 191.78 134.44
  A 1.67 0.66 -24.6 0 1 192.72 134.39
  Q 195.41 135.26 196.06 137.44
  Q 196.82 139.97 199.06 142.44
  Q 200.44 143.95 200.69 146.17
  Q 200.93 148.28 200.94 148.32
  Q 201.31 150.52 201.47 152.75
  A 1.63 1.33 64.1 0 1 201.25 153.69
  Q 200.36 155.07 198.75 155.71
  Z"
/>
<path fill="#c0a393" d="
  M 270.24 139.23
  Q 270.50 138.21 270.77 139.25
  Q 270.82 139.43 270.78 139.64
  Q 270.43 141.96 270.21 139.64
  Q 270.19 139.43 270.24 139.23
  Z"
/>
<ellipse fill="#010101" cx="0.00" cy="0.00" transform="translate(234.42,145.24) rotate(-37.7)" rx="7.52" ry="2.78"/>
<ellipse fill="#c0a393" cx="0.00" cy="0.00" transform="translate(278.25,142.44) rotate(20.1)" rx="0.78" ry="0.42"/>
<path fill="#010101" d="
  M 62.31 177.64
  A 0.57 0.55 -45.7 0 0 62.30 178.57
  L 70.18 183.56
  Q 72.52 185.04 70.57 186.80
  Q 68.61 188.59 66.05 189.10
  A 0.91 0.87 61.7 0 1 65.22 188.83
  Q 59.79 183.14 56.56 180.94
  Q 52.18 177.95 56.45 174.93
  Q 65.24 168.72 66.21 158.00
  A 1.50 1.36 -61.1 0 0 65.99 157.07
  Q 63.90 153.85 60.00 153.75
  Q 53.01 153.57 46.12 155.23
  Q 38.05 157.17 33.54 160.75
  Q 25.62 167.03 25.67 178.75
  Q 25.69 183.47 29.36 185.59
  Q 29.80 185.85 32.29 186.27
  Q 33.85 186.54 35.21 187.82
  A 1.16 1.16 -48.7 0 1 35.31 189.40
  Q 33.17 192.00 30.75 192.25
  Q 28.79 192.46 26.23 190.58
  Q 17.37 184.06 20.22 172.19
  Q 24.02 156.32 39.30 150.88
  Q 49.92 147.09 60.50 147.50
  Q 65.41 147.69 68.52 150.75
  Q 71.16 153.35 71.62 158.11
  Q 72.81 170.35 62.31 177.64
  Z"
/>
<path fill="#030303" d="
  M 370.50 198.21
  Q 369.60 197.52 368.52 197.20
  Q 367.49 196.89 368.42 197.84
  Q 368.89 198.32 369.00 198.96
  L 359.29 201.69
  A 1.16 1.10 -83.1 0 0 358.60 202.26
  L 357.19 205.00
  A 1.19 1.15 5.1 0 1 356.47 205.58
  Q 350.48 207.23 351.36 199.79
  Q 351.77 196.39 354.94 195.08
  Q 356.62 194.38 361.00 193.76
  Q 376.61 191.55 382.21 177.98
  Q 383.96 173.74 383.08 170.34
  Q 382.04 166.32 378.45 163.54
  Q 373.27 159.51 366.68 158.86
  Q 358.06 158.01 356.26 166.36
  Q 354.94 172.49 361.02 172.75
  Q 362.17 172.80 363.24 173.24
  Q 366.60 174.65 364.32 176.34
  Q 363.43 177.01 362.02 177.22
  Q 354.03 178.45 351.05 172.67
  Q 348.75 168.21 350.47 162.55
  Q 352.63 155.46 359.52 153.24
  Q 364.90 151.50 371.51 153.17
  Q 378.57 154.95 383.84 159.93
  Q 388.57 164.40 389.62 169.80
  Q 390.76 175.68 388.06 181.81
  Q 382.73 193.91 370.50 198.21
  Z"
/>
<path fill="#010101" d="
  M 227.21 233.00
  Q 227.90 229.67 230.06 227.06
  Q 230.72 226.25 229.95 225.50
  A 0.73 0.66 34.7 0 1 229.77 224.73
  Q 232.02 219.83 233.19 214.57
  Q 233.73 212.17 233.06 209.57
  Q 229.65 196.26 226.19 188.81
  Q 221.35 178.41 212.50 170.25
  Q 209.12 167.13 204.76 162.18
  A 1.10 0.92 -18.6 0 0 203.94 161.86
  Q 202.65 161.90 201.75 161.06
  Q 200.98 160.33 200.25 159.44
  Q 199.17 158.13 199.79 156.25
  Q 200.99 155.50 202.10 156.20
  Q 202.61 156.52 202.98 156.60
  Q 208.31 157.71 211.69 160.56
  Q 217.24 165.25 222.76 171.70
  Q 228.16 178.01 231.49 184.66
  Q 235.64 192.96 238.00 201.97
  Q 239.82 208.88 240.06 212.21
  Q 240.44 217.53 238.65 222.76
  Q 236.71 228.43 233.49 233.47
  Q 232.31 235.32 231.71 232.85
  Q 231.40 231.53 230.88 232.79
  Q 229.66 235.77 227.21 233.00
  Z"
/>
<path fill="#c0a393" d="
  M 327.04 167.75
  Q 327.60 168.85 327.21 170.00
  Q 325.71 170.23 325.31 169.18
  A 0.42 0.36 -11.9 0 1 325.69 168.69
  Q 326.62 168.59 327.04 167.75
  Z"
/>
<path fill="#ffffff" d="
  M 320.71 170.25
  Q 318.12 178.37 312.71 185.00
  Q 312.30 184.48 312.60 183.83
  Q 315.60 177.50 319.24 171.51
  Q 319.30 171.41 319.53 170.82
  Q 319.79 170.12 320.71 170.25
  Z"
/>
<rect fill="#010101" x="-5.58" y="-2.63" transform="translate(263.55,178.08) rotate(-31.6)" width="11.16" height="5.26" rx="2.33"/>
<path fill="#010101" d="
  M 120.01 188.93
  Q 121.50 189.89 121.52 191.76
  A 1.27 1.07 -25.5 0 1 121.14 192.60
  Q 112.89 200.58 106.11 209.85
  Q 103.05 214.01 99.34 217.79
  A 1.67 1.67 -51.0 0 1 97.24 218.01
  Q 95.32 216.75 96.55 215.05
  Q 99.91 210.40 103.00 205.57
  Q 107.71 198.21 115.06 191.31
  Q 117.05 189.45 119.08 188.82
  A 1.18 1.12 -36.8 0 1 120.01 188.93
  Z"
/>
<ellipse fill="#010101" cx="0.00" cy="0.00" transform="translate(81.24,196.63) rotate(131.1)" rx="6.70" ry="5.75"/>
<path fill="#030303" d="
  M 146.46 200.02
  Q 142.77 199.13 140.06 201.56
  Q 135.22 205.91 128.75 213.81
  A 1.11 1.03 -68.9 0 1 127.93 214.21
  Q 125.76 214.22 125.49 212.33
  Q 125.33 211.25 126.13 209.82
  Q 130.62 201.76 138.43 196.75
  Q 142.46 194.16 147.50 194.75
  Q 150.97 195.16 152.73 197.94
  Q 156.53 203.97 153.49 210.51
  Q 152.64 212.36 150.73 211.65
  Q 146.20 209.97 148.22 205.71
  Q 149.07 203.93 148.91 202.98
  Q 148.73 201.97 148.10 201.09
  Q 147.53 200.28 146.46 200.02
  Z"
/>
<path fill="#413e3b" d="
  M 370.50 198.21
  L 369.00 198.96
  Q 368.89 198.32 368.42 197.84
  Q 367.49 196.89 368.52 197.20
  Q 369.60 197.52 370.50 198.21
  Z"
/>
<path fill="#030303" d="
  M 187.45 201.79
  Q 189.11 203.27 189.92 205.24
  Q 190.47 206.58 191.05 209.26
  Q 192.43 215.62 189.08 221.63
  Q 188.30 223.04 187.53 221.62
  Q 186.82 220.32 185.92 220.13
  A 1.52 1.51 15.9 0 1 184.79 218.11
  Q 185.80 215.44 185.77 212.70
  Q 185.74 209.52 184.16 207.66
  Q 181.88 204.98 177.75 206.75
  Q 172.65 208.93 169.32 214.39
  A 1.03 0.91 -73.5 0 1 168.57 214.86
  Q 165.87 214.98 165.12 212.49
  A 1.42 1.27 -43.4 0 1 165.20 211.54
  Q 169.92 201.25 182.00 200.25
  Q 185.39 199.97 187.45 201.79
  Z"
/>
<path fill="#010101" d="
  M 348.75 214.99
  Q 355.40 207.45 361.07 215.68
  Q 363.29 218.90 360.21 221.25
  Q 353.78 226.16 348.50 220.75
  Q 345.96 218.15 348.75 214.99
  Z"
/>
<path fill="#080808" d="
  M 276.99 213.79
  Q 279.41 210.81 281.52 214.71
  Q 282.61 216.73 280.33 217.03
  Q 276.91 217.47 276.70 214.68
  A 1.29 1.19 -29.1 0 1 276.99 213.79
  Z"
/>
<path fill="#010101" d="
  M 32.00 257.21
  Q 55.34 244.86 77.92 231.16
  Q 82.74 228.23 87.80 225.72
  A 1.37 1.08 -44.3 0 1 88.73 225.62
  Q 90.57 226.21 90.28 228.20
  A 1.36 1.07 -20.3 0 1 89.79 229.00
  Q 77.88 238.27 64.77 245.74
  Q 49.41 254.50 33.84 262.80
  Q 32.55 263.48 33.98 263.75
  Q 36.24 264.16 38.50 264.50
  Q 41.39 264.93 54.66 264.69
  Q 63.32 264.53 70.82 264.70
  Q 87.41 265.08 104.00 265.24
  Q 105.88 265.25 106.95 265.65
  Q 108.38 266.19 109.57 267.20
  A 1.02 1.02 -42.0 0 1 109.48 268.83
  Q 107.34 270.25 104.50 270.42
  Q 96.25 270.89 88.00 270.75
  Q 83.49 270.67 81.30 270.18
  A 1.24 1.19 34.1 0 0 80.38 270.34
  L 79.87 270.66
  A 1.68 1.61 -59.9 0 1 78.94 270.93
  Q 58.03 270.52 37.12 270.27
  Q 37.02 270.26 34.46 269.82
  Q 32.31 269.44 31.50 272.00
  Q 30.50 275.14 27.00 275.01
  Q 23.52 274.88 21.62 272.63
  Q 20.25 271.02 19.95 267.51
  Q 19.30 259.90 20.58 252.36
  Q 21.18 248.82 21.31 248.54
  Q 22.21 246.63 25.25 246.47
  Q 27.48 246.36 28.47 248.37
  Q 30.46 252.45 31.46 256.96
  A 0.38 0.37 69.6 0 0 32.00 257.21
  Z"
/>
<path fill="#413e3b" d="
  M 341.25 228.71
  Q 344.17 232.25 344.96 236.75
  L 339.83 229.87
  A 0.65 0.49 50.8 0 1 339.80 229.11
  Q 340.32 228.63 341.25 228.71
  Z"
/>
<path fill="#010101" d="
  M 280.69 238.18
  A 1.48 1.47 6.1 0 1 282.16 237.00
  Q 285.16 237.07 286.96 239.92
  A 1.43 1.43 -23.8 0 1 286.13 242.06
  Q 279.54 243.89 280.69 238.18
  Z"
/>
<path fill="#010101" d="
  M 132.22 265.25
  L 130.55 264.77
  A 0.97 0.78 2.4 0 1 129.91 264.21
  Q 126.47 253.36 133.79 246.70
  Q 137.04 243.75 141.77 242.33
  Q 146.29 240.98 151.00 241.25
  Q 155.58 241.52 159.12 244.01
  Q 162.57 246.45 163.55 250.73
  Q 164.93 256.85 161.50 262.50
  Q 159.62 265.59 156.37 265.16
  Q 154.91 264.97 153.06 263.55
  Q 151.57 262.40 150.12 261.23
  A 0.61 0.61 35.3 0 0 149.23 261.38
  Q 146.29 266.08 142.69 269.69
  Q 141.39 270.99 138.64 271.22
  Q 136.16 271.43 134.64 270.24
  Q 132.69 268.72 132.68 265.93
  A 0.74 0.63 -83.9 0 0 132.22 265.25
  Z
  M 133.71 254.50
  Q 132.15 258.18 134.96 261.00
  L 137.65 264.56
  Q 139.21 266.64 140.78 264.19
  Q 142.57 261.38 144.67 259.03
  Q 146.81 256.63 149.20 256.41
  Q 152.86 256.07 156.16 258.99
  A 1.13 1.12 -56.2 0 0 157.92 258.64
  Q 159.94 254.51 158.10 251.05
  Q 156.60 248.22 152.69 246.99
  Q 145.71 244.80 138.94 248.19
  Q 135.19 250.06 133.71 254.50
  Z"
/>
<path fill="#010101" d="
  M 236.25 248.29
  Q 233.06 247.46 232.29 244.25
  Q 233.10 243.38 234.75 243.00
  Q 240.07 241.77 245.50 242.47
  Q 247.87 242.77 249.41 244.28
  A 1.20 1.20 47.9 0 1 249.32 246.06
  Q 245.92 248.81 241.50 248.25
  Q 239.96 248.05 236.25 248.29
  Z"
/>
<path fill="#f51010" d="
  M 134.96 261.00
  L 133.71 254.50
  Q 135.19 250.06 138.94 248.19
  Q 145.71 244.80 152.69 246.99
  Q 156.60 248.22 158.10 251.05
  Q 159.94 254.51 157.92 258.64
  A 1.13 1.12 -56.2 0 1 156.16 258.99
  Q 152.86 256.07 149.20 256.41
  Q 146.81 256.63 144.67 259.03
  Q 142.57 261.38 140.78 264.19
  Q 139.21 266.64 137.65 264.56
  L 134.96 261.00
  Z"
/>
<path fill="#c0a393" d="
  M 133.71 254.50
  L 134.96 261.00
  Q 132.15 258.18 133.71 254.50
  Z"
/>
<path fill="#413e3b" d="
  M 334.13 257.40
  Q 334.90 256.10 334.94 257.25
  A 0.99 0.88 -24.7 0 1 334.62 257.98
  Q 332.77 259.68 334.13 257.40
  Z"
/>
<path fill="#010101" d="
  M 240.25 261.54
  Q 245.15 262.03 248.39 265.40
  Q 249.37 266.43 249.32 267.51
  Q 249.22 269.30 247.00 269.25
  Q 241.92 269.15 240.79 269.25
  Q 240.31 266.99 238.00 267.39
  A 1.63 1.01 -25.3 0 1 237.04 267.28
  Q 235.32 266.35 235.09 264.31
  A 1.26 1.23 -29.1 0 1 235.36 263.41
  Q 237.18 261.16 240.25 261.54
  Z"
/>
<path fill="#010101" d="
  M 275.64 267.68
  A 0.67 0.64 16.9 0 1 275.25 266.98
  L 275.59 264.93
  A 0.97 0.96 -8.4 0 1 276.13 264.21
  Q 278.12 263.25 280.33 263.39
  Q 280.37 263.40 281.27 263.64
  Q 281.79 263.79 282.30 263.49
  Q 282.84 263.16 283.20 263.15
  Q 286.15 263.03 288.11 265.18
  A 0.88 0.86 33.2 0 1 288.30 266.04
  Q 287.50 268.50 284.69 268.96
  Q 280.13 269.70 275.64 267.68
  Z"
/>
<path fill="#080808" d="
  M 187.44 284.06
  Q 185.00 282.79 184.96 279.75
  Q 184.94 277.15 185.72 274.75
  Q 186.42 272.61 188.46 270.66
  Q 191.09 268.14 194.07 266.03
  Q 197.10 263.88 199.66 264.49
  Q 202.55 265.18 200.40 267.23
  Q 197.36 270.13 194.18 272.68
  Q 191.46 274.85 190.91 277.50
  Q 190.53 279.31 192.38 279.73
  L 202.22 281.93
  A 1.19 1.16 -79.3 0 1 203.11 283.27
  Q 202.67 286.12 200.59 286.67
  Q 199.77 286.88 196.89 286.67
  Q 191.73 286.30 187.44 284.06
  Z"
/>
<path fill="#010101" d="
  M 119.49 314.54
  Q 119.87 315.75 119.62 317.01
  A 0.91 0.78 -66.5 0 0 119.87 317.83
  Q 120.99 318.77 122.37 319.20
  Q 123.23 319.47 125.12 319.18
  Q 127.59 318.79 129.86 319.90
  Q 130.97 320.44 131.90 320.52
  Q 133.03 320.61 134.08 320.73
  A 0.45 0.45 1.1 0 0 134.58 320.25
  Q 134.31 316.16 138.32 316.52
  Q 143.91 317.04 150.01 316.45
  Q 150.80 316.37 150.44 317.08
  Q 148.99 319.84 152.09 317.01
  A 1.80 1.80 -70.3 0 1 153.42 316.52
  Q 159.25 316.77 165.50 316.51
  Q 169.32 316.34 172.64 319.20
  A 2.12 2.11 -54.4 0 1 173.08 321.87
  Q 171.70 324.23 169.04 323.83
  Q 166.55 323.46 166.41 323.45
  Q 163.72 323.36 161.03 323.27
  Q 160.58 323.26 159.49 323.42
  Q 157.63 323.69 158.47 321.77
  A 0.63 0.32 -71.1 0 0 158.36 320.98
  Q 157.89 320.96 157.02 322.72
  A 1.36 1.35 -74.3 0 1 155.69 323.47
  Q 151.91 323.16 147.89 323.37
  Q 146.91 323.42 145.82 323.04
  Q 145.05 322.77 144.24 322.60
  A 1.79 1.28 -41.4 0 0 143.29 322.70
  Q 141.06 323.57 138.46 322.65
  A 0.71 0.71 10.8 0 0 137.51 323.29
  Q 137.42 326.30 134.81 326.33
  A 1.70 1.54 -60.4 0 0 133.93 326.62
  Q 132.84 327.39 131.58 326.93
  Q 129.90 326.31 129.84 326.30
  Q 126.33 325.59 122.74 325.84
  Q 119.24 326.08 116.32 324.19
  Q 114.31 322.89 114.48 320.73
  A 2.76 2.76 25.0 0 0 113.69 318.57
  Q 112.11 316.96 113.42 315.36
  A 1.34 1.17 -29.5 0 0 113.72 314.51
  Q 113.57 310.74 116.44 308.94
  Q 119.24 307.17 119.48 304.50
  A 0.75 0.63 16.4 0 0 119.04 303.83
  Q 117.31 303.03 118.00 300.75
  Q 118.88 297.84 118.80 293.89
  Q 118.77 292.17 117.86 291.45
  Q 116.80 290.60 115.29 291.03
  A 2.04 1.34 -35.7 0 1 114.33 291.07
  Q 109.55 289.86 108.50 289.50
  Q 103.72 287.87 102.71 283.72
  Q 101.87 280.29 104.00 276.57
  Q 106.31 272.56 110.58 270.40
  Q 112.27 269.54 113.55 269.95
  Q 115.41 270.54 115.03 272.94
  A 1.31 1.11 -17.5 0 1 114.53 273.73
  Q 111.39 276.02 109.19 279.34
  Q 108.03 281.09 109.99 282.56
  L 112.14 284.16
  A 0.80 0.76 -36.7 0 0 112.92 284.25
  Q 113.57 283.99 114.56 284.19
  Q 117.80 284.83 120.39 287.00
  A 0.41 0.41 34.2 0 0 121.02 286.88
  Q 121.81 285.42 122.52 284.01
  Q 123.98 281.07 126.88 282.36
  A 1.15 1.14 -68.8 0 1 127.50 283.78
  Q 124.20 293.32 124.78 302.68
  A 1.30 1.23 21.1 0 0 125.18 303.52
  Q 128.12 306.29 127.31 309.56
  Q 126.69 312.08 124.44 310.99
  A 0.92 0.74 37.6 0 0 123.58 311.01
  L 119.70 313.76
  A 0.73 0.61 65.2 0 0 119.49 314.54
  Z
  M 120.11 294.14
  Q 119.77 295.04 120.49 294.57
  Q 120.69 294.45 120.80 294.22
  Q 121.49 292.80 120.35 293.79
  Q 120.18 293.94 120.11 294.14
  Z"
/>
<ellipse fill="#c0a393" cx="0.00" cy="0.00" transform="translate(320.00,271.25) rotate(28.4)" rx="0.81" ry="0.43"/>
<path fill="#ffffff" d="
  M 316.50 271.71
  Q 317.30 273.51 318.07 275.35
  Q 318.50 276.40 319.75 278.93
  Q 321.92 283.31 322.47 288.25
  Q 323.13 294.24 318.25 297.54
  Q 317.03 297.55 317.85 296.60
  Q 320.99 292.97 320.83 288.64
  Q 320.75 286.34 318.92 280.81
  Q 317.59 276.81 315.56 272.44
  Q 315.12 271.47 316.50 271.71
  Z"
/>
<path fill="#c0a393" d="
  M 319.69 274.83
  Q 318.53 274.06 319.56 273.95
  A 1.04 0.79 -17.3 0 1 320.43 274.27
  Q 320.63 274.56 320.41 274.81
  A 0.60 0.48 37.0 0 1 319.69 274.83
  Z"
/>
<path fill="#010101" d="
  M 239.75 278.54
  Q 241.59 279.07 243.11 280.17
  Q 243.38 280.37 245.71 281.92
  Q 247.32 282.98 248.19 284.82
  A 1.70 1.69 65.1 0 1 247.37 287.08
  Q 243.78 288.72 240.04 286.50
  Q 238.05 285.79 237.31 284.69
  Q 236.44 283.37 235.30 283.04
  A 0.80 0.38 16.2 0 1 234.66 282.47
  Q 234.71 282.24 235.18 282.19
  A 0.82 0.53 -0.6 0 0 235.88 281.73
  Q 235.99 281.26 235.66 280.80
  A 0.93 0.67 42.9 0 1 235.50 279.98
  Q 236.80 277.15 239.75 278.54
  Z"
/>
<ellipse fill="#c0a393" cx="0.00" cy="0.00" transform="translate(328.36,283.35) rotate(-40.1)" rx="0.75" ry="0.57"/>
<path fill="#c0a393" d="
  M 120.35 293.79
  Q 121.49 292.80 120.80 294.22
  Q 120.69 294.45 120.49 294.57
  Q 119.77 295.04 120.11 294.14
  Q 120.18 293.94 120.35 293.79
  Z"
/>
<path fill="#c0a393" d="
  M 329.25 295.04
  Q 329.58 296.26 328.75 297.04
  Q 327.93 295.69 329.25 295.04
  Z"
/>
<path fill="#010101" d="
  M 236.50 298.79
  Q 240.37 301.68 241.06 302.69
  Q 242.57 304.88 240.65 306.45
  A 1.36 1.18 23.8 0 1 239.75 306.73
  Q 236.42 306.54 233.54 304.75
  L 229.86 301.85
  A 0.92 0.78 -67.3 0 1 229.59 301.00
  Q 230.77 295.09 236.50 298.79
  Z"
/>
<path fill="#413e3b" d="
  M 313.57 303.73
  Q 312.73 303.51 314.30 302.84
  Q 314.78 302.64 315.11 302.74
  Q 315.67 302.91 314.49 303.58
  A 1.33 1.07 -48.2 0 1 313.57 303.73
  Z"
/>
<path fill="#010101" d="
  M 200.62 324.06
  Q 200.73 325.80 198.98 325.39
  Q 198.46 325.27 198.02 325.36
  Q 194.65 326.06 191.47 324.93
  A 1.67 1.65 -41.5 0 0 190.51 324.88
  Q 185.81 326.00 182.57 322.85
  Q 181.52 321.84 180.82 319.97
  Q 180.22 318.36 179.66 316.73
  A 1.09 0.73 -44.1 0 1 179.84 315.89
  L 180.30 315.20
  A 1.35 0.61 70.1 0 0 180.37 314.26
  Q 180.04 312.70 181.11 311.35
  Q 184.85 306.60 190.50 304.58
  Q 190.59 304.54 192.70 303.47
  Q 193.77 302.93 194.92 303.19
  Q 195.98 303.43 196.48 304.49
  Q 197.64 306.92 194.94 308.19
  Q 189.79 310.61 187.35 315.03
  Q 185.59 318.24 189.24 318.50
  Q 194.02 318.84 198.80 318.98
  Q 198.92 318.98 200.15 319.20
  Q 201.16 319.38 201.93 318.63
  A 1.06 0.89 -61.1 0 1 202.73 318.32
  Q 204.46 318.55 206.13 318.21
  Q 208.80 317.67 209.44 317.61
  Q 211.63 317.41 213.80 317.04
  Q 215.30 316.79 216.28 317.25
  Q 217.46 317.80 218.37 318.81
  A 0.49 0.44 -40.8 0 1 218.28 319.48
  Q 217.41 320.20 217.48 321.20
  A 1.47 1.47 83.3 0 1 216.26 322.75
  Q 208.70 324.01 201.05 323.59
  A 0.44 0.41 89.3 0 0 200.62 324.06
  Z"
/>
<path fill="#413e3b" d="
  M 289.25 303.04
  Q 291.91 302.60 294.00 304.21
  L 291.70 305.77
  A 0.57 0.49 55.5 0 1 290.98 305.58
  L 289.25 303.04
  Z"
/>
<ellipse fill="#413e3b" cx="0.00" cy="0.00" transform="translate(282.99,306.58) rotate(129.2)" rx="1.16" ry="0.86"/>
<path fill="#413e3b" d="
  M 275.46 308.25
  Q 279.15 310.25 274.75 310.96
  L 275.46 308.25
  Z"
/>
<path fill="#c0a393" d="
  M 292.75 311.46
  Q 292.38 311.55 292.00 311.46
  Q 292.47 308.53 292.75 311.46
  Z"
/>
<path fill="#413e3b" d="
  M 284.29 311.50
  L 283.54 313.75
  Q 282.48 311.73 284.29 311.50
  Z"
/>
<path fill="#010101" d="
  M 227.50 311.96
  Q 232.45 314.85 231.96 320.50
  Q 230.32 320.54 228.87 319.81
  Q 228.44 319.58 227.94 319.55
  Q 225.62 319.41 224.42 317.32
  Q 221.57 312.32 227.50 311.96
  Z"
/>
<path fill="#ffffff" d="
  M 275.50 313.96
  Q 276.01 314.15 276.29 314.55
  A 0.71 0.61 -40.5 0 1 276.16 315.37
  Q 274.09 317.48 271.04 317.75
  Q 272.67 315.17 275.50 313.96
  Z"
/>
<path fill="#413e3b" d="
  M 281.75 321.21
  L 281.38 318.06
  A 0.54 0.51 -9.1 0 1 281.81 317.50
  Q 283.37 317.18 283.50 315.54
  Q 285.15 315.20 284.44 317.19
  Q 283.43 320.01 281.75 321.21
  Z"
/>
<ellipse fill="#413e3b" cx="0.00" cy="0.00" transform="translate(277.75,319.50) rotate(135.0)" rx="0.97" ry="0.48"/>
<path fill="#c0a393" d="
  M 269.25 324.46
  L 268.54 324.50
  Q 268.11 323.18 268.90 322.32
  A 0.63 0.41 -44.9 0 1 269.69 322.16
  Q 269.87 322.39 269.44 322.94
  Q 268.88 323.66 269.25 324.46
  Z"
/>
</svg>
